<svg width="32" height="32" viewBox="0 0 32 32" fill="none" xmlns="http://www.w3.org/2000/svg">
<mask id="mask0_30_191" style="mask-type:alpha" maskUnits="userSpaceOnUse" x="0" y="0" width="32" height="32">
<rect width="32" height="32" fill="#D9D9D9"/>
</mask>
<g mask="url(#mask0_30_191)">
<path d="M15.5179 21.0512C14.8684 21.6836 14.1026 21.9956 13.2206 21.9872C12.3384 21.9785 11.581 21.6665 10.9486 21.0512C10.3333 20.4187 10.0213 19.6627 10.0126 18.7832C10.0041 17.9036 10.3161 17.1476 10.9486 16.5152L16.4819 10.9485C17.1144 10.3161 17.8801 9.99984 18.7793 9.99984C19.6786 9.99984 20.4445 10.3161 21.0769 10.9485C21.7094 11.5809 22.0213 12.3369 22.0126 13.2165C22.0041 14.0961 21.6923 14.8521 21.0769 15.4845L15.5179 21.0512ZM11.8666 20.0998C12.3777 20.6109 12.9055 20.7943 13.4499 20.6498C13.9944 20.5054 14.3666 20.3332 14.5666 20.1332L16.8616 17.8048L14.1949 15.1382L11.8666 17.4332C11.4888 17.8109 11.2999 18.2554 11.2999 18.7665C11.2999 19.2776 11.4888 19.7221 11.8666 20.0998ZM20.1333 11.8998C19.6221 11.3887 19.0944 11.2054 18.5499 11.3498C18.0055 11.4943 17.6333 11.6665 17.4333 11.8665L15.1383 14.1948L17.8049 16.8615L20.1333 14.5665C20.511 14.1887 20.6999 13.7443 20.6999 13.2332C20.6999 12.7221 20.511 12.2776 20.1333 11.8998ZM7.48725 26.6665C6.89059 26.6665 6.38236 26.4567 5.96259 26.0372C5.54303 25.6174 5.33325 25.1092 5.33325 24.5125V7.48717C5.33325 6.8905 5.54303 6.38228 5.96259 5.9625C6.38236 5.54295 6.89059 5.33317 7.48725 5.33317H13.7539C13.6324 4.65273 13.7951 4.03817 14.2423 3.4895C14.6891 2.94084 15.275 2.6665 15.9999 2.6665C16.7417 2.6665 17.3361 2.94084 17.7833 3.4895C18.2304 4.03817 18.3846 4.65273 18.2459 5.33317H24.5126C25.1093 5.33317 25.6175 5.54295 26.0373 5.9625C26.4568 6.38228 26.6666 6.8905 26.6666 7.48717V24.5125C26.6666 25.1092 26.4568 25.6174 26.0373 26.0372C25.6175 26.4567 25.1093 26.6665 24.5126 26.6665H7.48725ZM7.48725 25.3332H24.5126C24.7179 25.3332 24.906 25.2477 25.0769 25.0768C25.2478 24.906 25.3333 24.7178 25.3333 24.5125V7.48717C25.3333 7.28184 25.2478 7.09373 25.0769 6.92284C24.906 6.75195 24.7179 6.6665 24.5126 6.6665H7.48725C7.28192 6.6665 7.09381 6.75195 6.92292 6.92284C6.75203 7.09373 6.66659 7.28184 6.66659 7.48717V24.5125C6.66659 24.7178 6.75203 24.906 6.92292 25.0768C7.09381 25.2477 7.28192 25.3332 7.48725 25.3332ZM15.9999 5.92284C16.2888 5.92284 16.5277 5.82839 16.7166 5.6395C16.9055 5.45062 16.9999 5.21173 16.9999 4.92284C16.9999 4.63395 16.9055 4.39506 16.7166 4.20617C16.5277 4.01728 16.2888 3.92284 15.9999 3.92284C15.711 3.92284 15.4721 4.01728 15.2833 4.20617C15.0944 4.39506 14.9999 4.63395 14.9999 4.92284C14.9999 5.21173 15.0944 5.45062 15.2833 5.6395C15.4721 5.82839 15.711 5.92284 15.9999 5.92284Z" fill="#616161"/>
</g>
</svg>
