<svg width="32" height="32" viewBox="0 0 32 32" fill="none" xmlns="http://www.w3.org/2000/svg">
<mask id="mask0_137_1541" style="mask-type:alpha" maskUnits="userSpaceOnUse" x="0" y="0" width="32" height="32">
<rect width="32" height="32" fill="#D9D9D9"/>
</mask>
<g mask="url(#mask0_137_1541)">
<path d="M4.923 12.359C4.73411 12.359 4.57578 12.295 4.448 12.167C4.32022 12.039 4.25633 11.8805 4.25633 11.6914C4.25633 11.5023 4.32022 11.344 4.448 11.2167C4.57578 11.0894 4.73411 11.0257 4.923 11.0257H9.077C9.50256 11.0257 9.88244 11.15 10.2167 11.3987C10.5509 11.6474 10.7863 11.9675 10.923 12.359H4.923ZM7.641 24.3077C8.83767 24.3077 9.85478 23.8889 10.6923 23.0514C11.5299 22.2138 11.9487 21.1967 11.9487 20C11.9487 18.8034 11.5299 17.7863 10.6923 16.9487C9.85478 16.1111 8.83767 15.6924 7.641 15.6924C6.44433 15.6924 5.42722 16.1111 4.58967 16.9487C3.75211 17.7863 3.33333 18.8034 3.33333 20C3.33333 21.1967 3.75211 22.2138 4.58967 23.0514C5.42722 23.8889 6.44433 24.3077 7.641 24.3077ZM26 24.3077C26.7264 24.3077 27.3526 24.0449 27.8783 23.5194C28.4039 22.9936 28.6667 22.3675 28.6667 21.641C28.6667 20.9146 28.4039 20.2885 27.8783 19.7627C27.3526 19.2371 26.7264 18.9744 26 18.9744C25.2736 18.9744 24.6474 19.2371 24.1217 19.7627C23.5961 20.2885 23.3333 20.9146 23.3333 21.641C23.3333 22.3675 23.5961 22.9936 24.1217 23.5194C24.6474 24.0449 25.2736 24.3077 26 24.3077ZM7.635 21.4874C7.22011 21.4874 6.86956 21.3421 6.58333 21.0517C6.29711 20.7613 6.154 20.4087 6.154 19.994C6.154 19.5791 6.29911 19.2286 6.58933 18.9424C6.87978 18.6559 7.23233 18.5127 7.647 18.5127C8.06189 18.5127 8.41244 18.6579 8.69867 18.9484C8.98511 19.2388 9.12833 19.5914 9.12833 20.006C9.12833 20.4209 8.98311 20.7715 8.69267 21.0577C8.40244 21.3441 8.04989 21.4874 7.635 21.4874ZM26.6153 17.6744C26.8856 17.7341 27.1154 17.7987 27.305 17.868C27.4948 17.9371 27.7093 18.0547 27.9487 18.2207V11.1794C27.9487 10.5871 27.7378 10.0801 27.316 9.65837C26.8942 9.23659 26.3872 9.0257 25.795 9.0257H18.9333L17.5333 7.55903L19.4 5.69237L18.4667 4.75903L13.7333 9.49237L14.7333 10.4257L16.6 8.55903L18 9.95903V12C18 13.0154 17.6384 13.8846 16.9153 14.6077C16.1922 15.3308 15.323 15.6924 14.3077 15.6924H11.2743C11.529 15.9164 11.735 16.1258 11.8923 16.3207C12.0497 16.5154 12.224 16.7504 12.4153 17.0257H14.3077C15.7059 17.0257 16.8931 16.5377 17.8693 15.5617C18.8453 14.5855 19.3333 13.3983 19.3333 12V10.359H25.795C26.0343 10.359 26.2309 10.4359 26.3847 10.5897C26.5384 10.7437 26.6153 10.9403 26.6153 11.1794V17.6744ZM22.1103 20.6667C22.1923 20.3916 22.2759 20.1585 22.361 19.9674C22.4461 19.7763 22.5788 19.5649 22.759 19.3334H13.2257C13.2632 19.5894 13.282 19.8119 13.282 20.001C13.282 20.1901 13.2632 20.412 13.2257 20.6667H22.1103ZM26 25.641C24.882 25.641 23.9359 25.2538 23.1617 24.4794C22.3872 23.7051 22 22.759 22 21.641C22 20.523 22.3872 19.5769 23.1617 18.8027C23.9359 18.0283 24.882 17.641 26 17.641C27.118 17.641 28.0641 18.0283 28.8383 18.8027C29.6128 19.5769 30 20.523 30 21.641C30 22.759 29.6128 23.7051 28.8383 24.4794C28.0641 25.2538 27.118 25.641 26 25.641ZM7.641 25.641C6.08033 25.641 4.75 25.091 3.65 23.991C2.55 22.891 2 21.5607 2 20C2 18.4394 2.55 17.109 3.65 16.009C4.75 14.909 6.08033 14.359 7.641 14.359C9.20167 14.359 10.532 14.909 11.632 16.009C12.732 17.109 13.282 18.4404 13.282 20.001C13.282 21.5617 12.732 22.891 11.632 23.991C10.532 25.091 9.20167 25.641 7.641 25.641Z" fill="#616161"/>
</g>
</svg>
