<svg width="32" height="32" viewBox="0 0 32 32" fill="none" xmlns="http://www.w3.org/2000/svg">
<mask id="mask0_30_142" style="mask-type:alpha" maskUnits="userSpaceOnUse" x="0" y="0" width="32" height="32">
<rect width="32" height="32" fill="#D9D9D9"/>
</mask>
<g mask="url(#mask0_30_142)">
<path d="M18.0283 14.7332L13.3103 10.0152L14.2617 9.09723L18.0283 12.8639L25.595 5.33057L26.5127 6.24857L18.0283 14.7332ZM9.33333 24.8716L19.4207 27.8152L27.405 25.3486C27.3794 24.9435 27.2569 24.6516 27.0373 24.4729C26.8176 24.2942 26.5743 24.2049 26.3077 24.2049H19.9847C19.4189 24.2049 18.9069 24.1827 18.4487 24.1382C17.9907 24.0938 17.5214 23.9879 17.041 23.8206L14.1207 22.8639L14.5717 21.5459L17.2717 22.5229C17.7008 22.6853 18.188 22.7828 18.7333 22.8152C19.2787 22.8477 20.0257 22.8665 20.9743 22.8716C20.9743 22.4562 20.8979 22.1203 20.745 21.8639C20.5919 21.6075 20.3727 21.4289 20.0873 21.3282L12.4153 18.5126C12.364 18.4957 12.317 18.4829 12.2743 18.4742C12.2317 18.4658 12.1847 18.4616 12.1333 18.4616H9.33333V24.8716ZM4 27.9999V17.1282H12.1077C12.229 17.1282 12.3547 17.1406 12.4847 17.1652C12.6144 17.1901 12.7376 17.2248 12.854 17.2692L20.559 20.0922C21.0359 20.2733 21.4466 20.599 21.791 21.0692C22.1354 21.5392 22.3077 22.14 22.3077 22.8716H26.3077C27.111 22.8716 27.7264 23.1229 28.154 23.6256C28.5813 24.128 28.795 24.7656 28.795 25.5382V26.3589L19.4873 29.2306L9.33333 26.2716V27.9999H4ZM5.33333 26.6666H8V18.4616H5.33333V26.6666Z" fill="white"/>
</g>
</svg>
