<svg width="32" height="32" viewBox="0 0 32 32" fill="none" xmlns="http://www.w3.org/2000/svg">
<mask id="mask0_926_21" style="mask-type:alpha" maskUnits="userSpaceOnUse" x="0" y="0" width="32" height="32">
<rect width="32" height="32" fill="#D9D9D9"/>
</mask>
<g mask="url(#mask0_926_21)">
<path d="M18.0283 14.7335L13.3103 10.0155L14.2617 9.09748L18.0283 12.8641L25.595 5.33081L26.5127 6.24881L18.0283 14.7335ZM9.33333 24.8718L19.4207 27.8155L27.405 25.3488C27.3794 24.9437 27.2569 24.6518 27.0373 24.4731C26.8176 24.2945 26.5743 24.2051 26.3077 24.2051H19.9847C19.4189 24.2051 18.9069 24.1829 18.4487 24.1385C17.9907 24.094 17.5214 23.9881 17.041 23.8208L14.1207 22.8641L14.5717 21.5461L17.2717 22.5231C17.7008 22.6856 18.188 22.783 18.7333 22.8155C19.2787 22.8479 20.0257 22.8667 20.9743 22.8718C20.9743 22.4565 20.8979 22.1206 20.745 21.8641C20.5919 21.6077 20.3727 21.4291 20.0873 21.3285L12.4153 18.5128C12.364 18.4959 12.317 18.4831 12.2743 18.4745C12.2317 18.466 12.1847 18.4618 12.1333 18.4618H9.33333V24.8718ZM4 28.0001V17.1285H12.1077C12.229 17.1285 12.3547 17.1408 12.4847 17.1655C12.6144 17.1904 12.7376 17.225 12.854 17.2695L20.559 20.0925C21.0359 20.2736 21.4466 20.5993 21.791 21.0695C22.1354 21.5395 22.3077 22.1403 22.3077 22.8718H26.3077C27.111 22.8718 27.7264 23.1231 28.154 23.6258C28.5813 24.1283 28.795 24.7658 28.795 25.5385V26.3591L19.4873 29.2308L9.33333 26.2718V28.0001H4ZM5.33333 26.6668H8V18.4618H5.33333V26.6668Z" fill="#616161"/>
</g>
</svg>
