<svg width="32" height="32" viewBox="0 0 32 32" fill="none" xmlns="http://www.w3.org/2000/svg">
<mask id="mask0_165_5336" style="mask-type:alpha" maskUnits="userSpaceOnUse" x="0" y="0" width="32" height="32">
<rect width="32" height="32" fill="#D9D9D9"/>
</mask>
<g mask="url(#mask0_165_5336)">
<path d="M6.88967 20.8359C6.48633 20.0855 6.18167 19.3107 5.97567 18.5116C5.76967 17.7123 5.66667 16.8973 5.66667 16.0666C5.66667 13.1828 6.67011 10.7286 8.677 8.70392C10.6839 6.67903 13.1249 5.66659 16 5.66659H17.041L14.5743 3.19992L15.9793 1.79492L20.8513 6.66659L15.9793 11.5383L14.5743 10.1333L17.041 7.66659H16C13.6838 7.66659 11.7158 8.48192 10.096 10.1126C8.47645 11.7435 7.66667 13.7281 7.66667 16.0666C7.66667 16.6188 7.72689 17.1705 7.84733 17.7216C7.968 18.2729 8.14878 18.811 8.38967 19.3359L6.88967 20.8359ZM16.0207 30.2049L11.1487 25.3333L16.0207 20.4616L17.4257 21.8666L14.959 24.3333H16C18.3162 24.3333 20.2842 23.5179 21.904 21.8873C23.5236 20.2564 24.3333 18.2717 24.3333 15.9333C24.3333 15.381 24.2731 14.8294 24.1527 14.2783C24.032 13.7269 23.8512 13.1888 23.6103 12.6639L25.1103 11.1639C25.5137 11.9144 25.8183 12.6891 26.0243 13.4883C26.2303 14.2876 26.3333 15.1026 26.3333 15.9333C26.3333 18.817 25.3299 21.2713 23.323 23.2959C21.3161 25.3208 18.8751 26.3333 16 26.3333H14.959L17.4257 28.7999L16.0207 30.2049Z" fill="#F5F5F7"/>
</g>
</svg>
