<svg width="32" height="32" viewBox="0 0 32 32" fill="none" xmlns="http://www.w3.org/2000/svg">
<mask id="mask0_30_136" style="mask-type:alpha" maskUnits="userSpaceOnUse" x="0" y="0" width="32" height="32">
<rect width="32" height="32" fill="#D9D9D9"/>
</mask>
<g mask="url(#mask0_30_136)">
<path d="M19.9473 6.795C19.6524 6.795 19.4038 6.69322 19.2013 6.48967C18.9987 6.28611 18.8973 6.03689 18.8973 5.742C18.8973 5.44733 18.9991 5.19867 19.2027 4.996C19.4062 4.79356 19.6553 4.69233 19.95 4.69233C20.2449 4.69233 20.4936 4.79411 20.696 4.99767C20.8987 5.20122 21 5.45033 21 5.745C21 6.03989 20.8982 6.28855 20.6947 6.491C20.4911 6.69367 20.242 6.795 19.9473 6.795ZM19.8703 27.3077C19.5757 27.3077 19.327 27.2059 19.1243 27.0023C18.9219 26.7988 18.8207 26.5497 18.8207 26.255C18.8207 25.9601 18.9223 25.7114 19.1257 25.509C19.3292 25.3063 19.5784 25.205 19.8733 25.205C20.168 25.205 20.4167 25.3068 20.6193 25.5103C20.8218 25.7139 20.923 25.9631 20.923 26.258C20.923 26.5527 20.8212 26.8013 20.6177 27.004C20.4143 27.2064 20.1652 27.3077 19.8703 27.3077ZM25.2037 11.154C24.909 11.154 24.6603 11.0522 24.4577 10.8487C24.2552 10.6451 24.154 10.3959 24.154 10.101C24.154 9.80633 24.2557 9.55767 24.459 9.355C24.6626 9.15256 24.9118 9.05133 25.2067 9.05133C25.5013 9.05133 25.75 9.15311 25.9527 9.35667C26.1551 9.56022 26.2563 9.80933 26.2563 10.104C26.2563 10.3987 26.1546 10.6473 25.951 10.85C25.7477 11.0527 25.4986 11.154 25.2037 11.154ZM25.1267 23.0257C24.832 23.0257 24.5833 22.9239 24.3807 22.7203C24.1782 22.5168 24.077 22.2677 24.077 21.973C24.077 21.6781 24.1788 21.4294 24.3823 21.227C24.5859 21.0243 24.835 20.923 25.1297 20.923C25.4243 20.923 25.673 21.0248 25.8757 21.2283C26.0781 21.4319 26.1793 21.681 26.1793 21.9757C26.1793 22.2706 26.0777 22.5192 25.8743 22.7217C25.6708 22.9243 25.4216 23.0257 25.1267 23.0257ZM26.9473 17.0513C26.6524 17.0513 26.4038 16.9496 26.2013 16.746C25.9987 16.5424 25.8973 16.2933 25.8973 15.9987C25.8973 15.7038 25.9991 15.4551 26.2027 15.2527C26.4062 15.05 26.6554 14.9487 26.9503 14.9487C27.245 14.9487 27.4936 15.0504 27.696 15.254C27.8987 15.4576 28 15.7067 28 16.0013C28 16.2962 27.8982 16.5449 27.6947 16.7473C27.4911 16.95 27.242 17.0513 26.9473 17.0513ZM16 28C14.3436 28 12.7849 27.6851 11.324 27.0553C9.86333 26.4256 8.59267 25.5709 7.512 24.4913C6.43133 23.4118 5.57589 22.1422 4.94567 20.6827C4.31522 19.2233 4 17.6639 4 16.0043C4 14.345 4.315 12.7849 4.945 11.324C5.575 9.86333 6.43 8.59267 7.51 7.512C8.59 6.43133 9.86 5.57589 11.32 4.94567C12.78 4.31522 14.34 4 16 4V5.33333C13.0222 5.33333 10.5 6.36667 8.43333 8.43333C6.36667 10.5 5.33333 13.0222 5.33333 16C5.33333 18.9778 6.36667 21.5 8.43333 23.5667C10.5 25.6333 13.0222 26.6667 16 26.6667V28ZM16 18C15.4376 18 14.9637 17.8072 14.5783 17.4217C14.1928 17.0363 14 16.5624 14 16C14 15.8376 14.0141 15.6867 14.0423 15.5473C14.0706 15.408 14.124 15.2742 14.2027 15.146L11.6153 12.5333L12.5333 11.6153L15.146 14.2027C15.252 14.1462 15.5367 14.0787 16 14C16.5624 14 17.0363 14.1928 17.4217 14.5783C17.8072 14.9637 18 15.4376 18 16C18 16.5624 17.8072 17.0363 17.4217 17.4217C17.0363 17.8072 16.5624 18 16 18Z" fill="white"/>
</g>
</svg>
