<svg width="32" height="32" viewBox="0 0 32 32" fill="none" xmlns="http://www.w3.org/2000/svg">
<mask id="mask0_137_1531" style="mask-type:alpha" maskUnits="userSpaceOnUse" x="0" y="0" width="32" height="32">
<rect width="32" height="32" fill="#D9D9D9"/>
</mask>
<g mask="url(#mask0_137_1531)">
<path d="M2 27.3334V22.0001H3.33333V26.0001H7.33333V27.3334H2ZM24.6667 27.3334V26.0001H28.6667V22.0001H30V27.3334H24.6667ZM5.33333 24.0001V8.00008H8V24.0001H5.33333ZM9.33333 24.0001V8.00008H10.6667V24.0001H9.33333ZM13.3333 24.0001V8.00008H16V24.0001H13.3333ZM17.3333 24.0001V8.00008H21.3333V24.0001H17.3333ZM22.6667 24.0001V8.00008H24V24.0001H22.6667ZM25.3333 24.0001V8.00008H26.6667V24.0001H25.3333ZM2 10.0001V4.66675H7.33333V6.00008H3.33333V10.0001H2ZM28.6667 10.0001V6.00008H24.6667V4.66675H30V10.0001H28.6667Z" fill="#616161"/>
</g>
</svg>
