<svg width="32" height="32" viewBox="0 0 32 32" fill="none" xmlns="http://www.w3.org/2000/svg">
<mask id="mask0_137_1556" style="mask-type:alpha" maskUnits="userSpaceOnUse" x="0" y="0" width="32" height="32">
<rect width="32" height="32" fill="#D9D9D9"/>
</mask>
<g mask="url(#mask0_137_1556)">
<path d="M8.00253 25.949C7.11209 25.949 6.40487 25.6033 5.88087 24.912C5.35709 24.2204 5.20198 23.455 5.41553 22.6156L7.94387 13.113C7.22764 12.8685 6.61353 12.4019 6.10153 11.713C5.58953 11.0241 5.33353 10.231 5.33353 9.33363C5.33353 8.23363 5.7252 7.29196 6.50853 6.50863C7.29187 5.7253 8.23353 5.33363 9.33353 5.33363H18.6669C19.4724 5.33363 20.0811 5.67463 20.4929 6.35663C20.9046 7.03863 20.931 7.73863 20.5719 8.45663L18.7259 12.149C18.529 12.5081 18.2651 12.7953 17.9342 13.0106C17.6033 13.226 17.2322 13.3336 16.8209 13.3336H13.4029L12.9079 15.2053H13.0002C13.2924 15.2224 13.5408 15.3317 13.7452 15.5333C13.9494 15.7349 14.0515 15.9845 14.0515 16.2823V18.1286C14.0515 18.4337 13.9483 18.6895 13.7419 18.896C13.5354 19.1022 13.2796 19.2053 12.9745 19.2053H11.8412L10.5849 24.0156C10.4215 24.587 10.1024 25.052 9.62753 25.4106C9.15264 25.7695 8.61098 25.949 8.00253 25.949ZM8.0002 24.6156C8.31131 24.6156 8.57798 24.5267 8.8002 24.349C9.02242 24.1712 9.17798 23.9379 9.26687 23.649L12.0209 13.3336H9.2542L6.7002 22.949C6.58909 23.3712 6.66687 23.7545 6.93353 24.099C7.2002 24.4434 7.55575 24.6156 8.0002 24.6156ZM9.33353 12.0003H16.8209C16.9746 12.0003 17.1199 11.9575 17.2565 11.872C17.3934 11.7866 17.496 11.6755 17.5642 11.5386L19.4105 7.8463C19.5472 7.57296 19.5343 7.30807 19.3719 7.05163C19.2096 6.79519 18.9746 6.66696 18.6669 6.66696H9.33353C8.6002 6.66696 7.97242 6.92807 7.4502 7.4503C6.92798 7.97252 6.66687 8.6003 6.66687 9.33363C6.66687 10.067 6.92798 10.6947 7.4502 11.217C7.97242 11.7392 8.6002 12.0003 9.33353 12.0003ZM23.9745 6.2053L23.4489 5.0463L27.6155 3.1543L28.1335 4.32096L23.9745 6.2053ZM27.6155 15.513L23.4489 13.6543L23.9745 12.4876L28.1335 14.3796L27.6155 15.513ZM24.1542 9.97463V8.69263H28.7695V9.97463H24.1542Z" fill="#616161"/>
</g>
</svg>
