<svg width="32" height="32" viewBox="0 0 32 32" fill="none" xmlns="http://www.w3.org/2000/svg">
<mask id="mask0_30_119" style="mask-type:alpha" maskUnits="userSpaceOnUse" x="0" y="0" width="32" height="32">
<rect width="32" height="32" fill="#D9D9D9"/>
</mask>
<g mask="url(#mask0_30_119)">
<path d="M7.84644 27.3332V25.9999H14.5131V21.9999H13.8464C12.1864 21.9999 10.7714 21.4149 9.60144 20.2449C8.43144 19.0749 7.84644 17.6599 7.84644 15.9999C7.84644 14.7674 8.20166 13.6461 8.9121 12.6359C9.62232 11.6256 10.5594 10.8905 11.7234 10.4305C11.7645 9.52119 12.1548 8.81608 12.8941 8.31519C13.6334 7.8143 14.4175 7.70919 15.2464 7.99986L14.3594 5.57419L15.6261 5.10753L15.1594 3.85619L16.7184 3.28186L17.1698 4.54853L18.3338 4.13319L21.6414 13.1589L20.4774 13.6255L20.9441 14.8922L19.3851 15.4665L18.9338 14.1999L17.6671 14.7179L16.8158 12.2615C16.5509 12.6409 16.2103 12.9425 15.7941 13.1665C15.3779 13.3905 14.9304 13.4974 14.4518 13.4872C13.8944 13.4767 13.3919 13.3139 12.9441 12.9985C12.4961 12.6832 12.1593 12.2767 11.9338 11.7792C11.0944 12.1519 10.4257 12.7152 9.92744 13.4692C9.42899 14.223 9.17977 15.0665 9.17977 15.9999C9.17977 17.2961 9.63355 18.398 10.5411 19.3055C11.4484 20.2129 12.5502 20.6665 13.8464 20.6665H23.8464V21.9999H16.1544V25.9999H24.1544V27.3332H7.84644ZM18.4054 13.1435L20.1184 12.4715L17.6464 5.64086L15.8671 6.26153L18.4054 13.1435ZM14.5114 12.3075C14.9759 12.3075 15.3658 12.1504 15.6811 11.8362C15.9967 11.522 16.1544 11.1326 16.1544 10.6682C16.1544 10.2037 15.9973 9.81386 15.6831 9.49853C15.3689 9.18319 14.9795 9.02553 14.5151 9.02553C14.0507 9.02553 13.6608 9.18264 13.3454 9.49686C13.0299 9.81108 12.8721 10.2004 12.8721 10.6649C12.8721 11.1293 13.0292 11.5192 13.3434 11.8345C13.6577 12.1499 14.047 12.3075 14.5114 12.3075Z" fill="#616161"/>
</g>
</svg>
