<svg width="32" height="32" viewBox="0 0 32 32" fill="none" xmlns="http://www.w3.org/2000/svg">
<mask id="mask0_137_1536" style="mask-type:alpha" maskUnits="userSpaceOnUse" x="0" y="0" width="32" height="32">
<rect width="32" height="32" fill="#D9D9D9"/>
</mask>
<g mask="url(#mask0_137_1536)">
<path d="M9.3075 28.0001C8.58106 28.0001 7.95928 27.7596 7.44217 27.2785C6.92506 26.7971 6.6665 26.2018 6.6665 25.4925V7.68748C6.6665 6.99681 6.90195 6.39081 7.37284 5.86948C7.84373 5.34815 8.4245 5.01559 9.11517 4.87181L20.8205 2.40015V21.8875L9.0075 24.4461C8.73906 24.5077 8.50406 24.6304 8.3025 24.8141C8.10073 24.9979 7.99984 25.224 7.99984 25.4925C7.99984 25.8394 8.12973 26.1218 8.3895 26.3398C8.64928 26.5578 8.95528 26.6668 9.3075 26.6668H23.9998V6.66681H25.3332V28.0001H9.3075ZM11.1792 22.6438L19.4872 20.8308V4.05148L11.1792 5.81281V22.6438ZM9.84584 22.9208V6.08981L9.26917 6.21548C8.90495 6.29415 8.60239 6.46815 8.3615 6.73748C8.12039 7.00659 7.99984 7.32326 7.99984 7.68748V23.5105C8.16228 23.4147 8.32595 23.333 8.49084 23.2655C8.65573 23.1979 8.82795 23.1445 9.0075 23.1051L9.84584 22.9208Z" fill="#616161"/>
</g>
</svg>
