<svg width="32" height="32" viewBox="0 0 32 32" fill="none" xmlns="http://www.w3.org/2000/svg">
<mask id="mask0_823_147" style="mask-type:alpha" maskUnits="userSpaceOnUse" x="0" y="0" width="32" height="32">
<rect width="32" height="32" fill="#D9D9D9"/>
</mask>
<g mask="url(#mask0_823_147)">
<path d="M10 5.3335C11.1727 5.3335 12.2727 5.6335 13.3 6.2335C14.3273 6.8335 15.2273 7.70616 16 8.8515C16.7727 7.70616 17.6727 6.8335 18.7 6.2335C19.7273 5.6335 20.8273 5.3335 22 5.3335C23.6958 5.3335 25.1197 5.90961 26.2717 7.06183C27.4239 8.21383 28 9.63772 28 11.3335C28 11.4788 27.9944 11.6156 27.9833 11.7438C27.9722 11.8721 27.9581 12.0088 27.941 12.1542H26.6077C26.6299 12.0088 26.6453 11.8721 26.654 11.7438C26.6624 11.6156 26.6667 11.4788 26.6667 11.3335C26.6667 10.0002 26.2222 8.88905 25.3333 8.00016C24.4444 7.11127 23.3333 6.66683 22 6.66683C20.9384 6.66683 19.959 6.96983 19.0617 7.57583C18.1641 8.18183 17.3607 9.09416 16.6513 10.3128H15.3487C14.6222 9.07705 13.8146 8.16039 12.9257 7.56283C12.0368 6.9655 11.0616 6.66683 10 6.66683C8.68378 6.66683 7.57689 7.11127 6.67933 8.00016C5.782 8.88905 5.33333 10.0002 5.33333 11.3335C5.33333 11.4788 5.33756 11.6156 5.346 11.7438C5.35467 11.8721 5.37011 12.0088 5.39233 12.1542H4.059C4.04189 12.0088 4.02778 11.8721 4.01667 11.7438C4.00556 11.6156 4 11.4788 4 11.3335C4 9.63772 4.57611 8.21383 5.72833 7.06183C6.88033 5.90961 8.30422 5.3335 10 5.3335ZM8.81033 19.8462H10.6717C11.3828 20.5522 12.1777 21.3181 13.0563 22.1438C13.935 22.9694 14.9162 23.8771 16 24.8668C17.0838 23.8771 18.065 22.9694 18.9437 22.1438C19.8223 21.3181 20.6172 20.5522 21.3283 19.8462H23.1973C22.4042 20.6599 21.5026 21.5515 20.4923 22.5208C19.4821 23.4899 18.3214 24.5694 17.0103 25.7592L16 26.6718L14.9897 25.7592C13.6786 24.5694 12.5192 23.4899 11.5117 22.5208C10.5039 21.5515 9.60344 20.6599 8.81033 19.8462ZM14.7333 20.6668C14.8684 20.6668 14.9817 20.6263 15.073 20.5452C15.1646 20.4638 15.2377 20.3583 15.2923 20.2285L17.5283 13.5128L19.3103 16.1952C19.4214 16.3387 19.5513 16.4532 19.7 16.5385C19.8487 16.6241 20.017 16.6668 20.205 16.6668H30V15.3335H20.3307L17.877 11.6515C17.8119 11.5539 17.7251 11.4808 17.6167 11.4322C17.5082 11.3835 17.3916 11.3592 17.2667 11.3592C17.1316 11.3592 17.014 11.3997 16.914 11.4808C16.814 11.5622 16.7452 11.6677 16.7077 11.7975L14.4717 18.5308L12.646 15.8052C12.5349 15.6616 12.405 15.5472 12.2563 15.4618C12.1077 15.3763 11.9393 15.3335 11.7513 15.3335H2V16.6668H11.618L14.0973 20.3745C14.1624 20.4889 14.2536 20.5663 14.3707 20.6065C14.4876 20.6467 14.6084 20.6668 14.7333 20.6668Z" fill="#0080C7"/>
</g>
</svg>
