<svg width="32" height="32" viewBox="0 0 32 32" fill="none" xmlns="http://www.w3.org/2000/svg">
<mask id="mask0_30_185" style="mask-type:alpha" maskUnits="userSpaceOnUse" x="0" y="0" width="32" height="32">
<rect width="32" height="32" fill="#D9D9D9"/>
</mask>
<g mask="url(#mask0_30_185)">
<path d="M4 26.6666V16.8276C4 16.2262 4.21089 15.7157 4.63267 15.2959C5.05444 14.8763 5.56156 14.6666 6.154 14.6666H12.6667V15.9999C12.6667 16.9259 12.9904 17.7129 13.638 18.3609C14.2856 19.0091 15.0719 19.3332 15.997 19.3332C16.9221 19.3332 17.7094 19.0091 18.359 18.3609C19.0086 17.7129 19.3333 16.9259 19.3333 15.9999V14.6666H25.846C26.4384 14.6666 26.9456 14.8774 27.3673 15.2992C27.7891 15.721 28 16.2281 28 16.8206V26.6666H4ZM5.33333 25.3332H26.6667V16.8206C26.6667 16.5812 26.5898 16.3846 26.436 16.2306C26.282 16.0768 26.0853 15.9999 25.846 15.9999H20.6667C20.6667 17.2972 20.2117 18.3993 19.3017 19.3062C18.3917 20.2131 17.2911 20.6666 16 20.6666C14.7089 20.6666 13.6083 20.2116 12.6983 19.3016C11.7883 18.3916 11.3333 17.291 11.3333 15.9999H6.154C5.91467 15.9999 5.718 16.0768 5.564 16.2306C5.41022 16.3846 5.33333 16.5812 5.33333 16.8206V25.3332ZM15.999 16.6666C15.8099 16.6666 15.6517 16.6027 15.5243 16.4749C15.397 16.3471 15.3333 16.1888 15.3333 15.9999C15.3333 13.6879 15.5983 11.4078 16.1283 9.15956C16.6581 6.91134 17.7966 5.029 19.5437 3.51256C19.6957 3.405 19.8598 3.355 20.036 3.36256C20.212 3.37034 20.3624 3.446 20.4873 3.58956C20.612 3.73312 20.6662 3.89723 20.65 4.08189C20.6338 4.26656 20.5496 4.41278 20.3973 4.52056C18.7736 5.89989 17.7458 7.62356 17.314 9.69156C16.8824 11.7596 16.6667 13.8623 16.6667 15.9999C16.6667 16.1888 16.6027 16.3471 16.4747 16.4749C16.3467 16.6027 16.1881 16.6666 15.999 16.6666ZM7.662 20.5639C7.91978 20.5639 8.13456 20.4797 8.30633 20.3112C8.47811 20.1426 8.564 19.9292 8.564 19.6712C8.564 19.4135 8.47978 19.1987 8.31133 19.0269C8.14267 18.8551 7.92933 18.7692 7.67133 18.7692C7.41356 18.7692 7.19878 18.8535 7.027 19.0219C6.85522 19.1906 6.76933 19.4039 6.76933 19.6619C6.76933 19.9197 6.85356 20.1345 7.022 20.3062C7.19067 20.478 7.404 20.5639 7.662 20.5639ZM8.99533 23.8972C9.25311 23.8972 9.46789 23.813 9.63967 23.6446C9.81144 23.4759 9.89733 23.2626 9.89733 23.0046C9.89733 22.7468 9.81311 22.532 9.64467 22.3602C9.476 22.1885 9.26267 22.1026 9.00467 22.1026C8.74689 22.1026 8.53211 22.1868 8.36033 22.3552C8.18856 22.5239 8.10267 22.7372 8.10267 22.9952C8.10267 23.253 8.18689 23.4678 8.35533 23.6396C8.524 23.8113 8.73733 23.8972 8.99533 23.8972ZM24.3287 20.5639C24.5864 20.5639 24.8012 20.4797 24.973 20.3112C25.1448 20.1426 25.2307 19.9292 25.2307 19.6712C25.2307 19.4135 25.1464 19.1987 24.978 19.0269C24.8093 18.8551 24.596 18.7692 24.338 18.7692C24.0802 18.7692 23.8654 18.8535 23.6937 19.0219C23.5219 19.1906 23.436 19.4039 23.436 19.6619C23.436 19.9197 23.5202 20.1345 23.6887 20.3062C23.8573 20.478 24.0707 20.5639 24.3287 20.5639Z" fill="#616161"/>
</g>
</svg>
