<svg width="32" height="32" viewBox="0 0 32 32" fill="none" xmlns="http://www.w3.org/2000/svg">
<mask id="mask0_823_141" style="mask-type:alpha" maskUnits="userSpaceOnUse" x="0" y="0" width="32" height="32">
<rect width="32" height="32" fill="#D9D9D9"/>
</mask>
<g mask="url(#mask0_823_141)">
<path d="M13.419 10.7873C12.713 10.0813 12.36 9.22052 12.36 8.20497C12.36 7.18963 12.713 6.32897 13.419 5.62297C14.125 4.91697 14.9857 4.56396 16.001 4.56396C17.0164 4.56396 17.877 4.91697 18.583 5.62297C19.289 6.32897 19.642 7.18963 19.642 8.20497C19.642 9.22052 19.289 10.0813 18.583 10.7873C17.877 11.4931 17.0164 11.846 16.001 11.846C14.9857 11.846 14.125 11.4931 13.419 10.7873ZM17.6357 9.83963C18.0844 9.39096 18.3087 8.84608 18.3087 8.20497C18.3087 7.56408 18.0844 7.0193 17.6357 6.57063C17.187 6.12174 16.6421 5.8973 16.001 5.8973C15.3599 5.8973 14.815 6.12174 14.3664 6.57063C13.9177 7.0193 13.6934 7.56408 13.6934 8.20497C13.6934 8.84608 13.9177 9.39096 14.3664 9.83963C14.815 10.2883 15.3599 10.5126 16.001 10.5126C16.6421 10.5126 17.187 10.2883 17.6357 9.83963ZM16.001 27.0256L8.71903 19.7436C8.37703 19.4016 8.12058 19.0084 7.94969 18.564C7.7788 18.1195 7.69336 17.6379 7.69336 17.119C7.69336 16.0987 8.04447 15.2384 8.74669 14.538C9.44891 13.8375 10.3115 13.4873 11.3344 13.4873C11.8326 13.4873 12.2921 13.5795 12.713 13.764C13.1341 13.9486 13.5241 14.2204 13.883 14.5793L16.001 16.6973L18.119 14.5793C18.4608 14.2375 18.8484 13.9701 19.2817 13.777C19.715 13.5839 20.1807 13.4873 20.6787 13.4873C21.6918 13.4873 22.5501 13.8375 23.2537 14.538C23.957 15.2384 24.3087 16.0987 24.3087 17.119C24.3087 17.6379 24.2232 18.1195 24.0524 18.564C23.8815 19.0084 23.625 19.4016 23.283 19.7436L16.001 27.0256ZM16.001 25.123L22.324 18.8C22.5582 18.5657 22.7254 18.3081 22.8254 18.027C22.9254 17.7456 22.9754 17.4503 22.9754 17.141C22.9754 16.5221 22.7522 15.9806 22.306 15.5166C21.86 15.0526 21.313 14.8206 20.665 14.8206C20.3659 14.8206 20.0935 14.867 19.8477 14.9596C19.6017 15.0523 19.3622 15.2179 19.1294 15.4563L16.001 18.5846L12.924 15.5076C12.762 15.3359 12.5527 15.1784 12.296 15.0353C12.0396 14.8922 11.7228 14.8206 11.3457 14.8206C10.6919 14.8206 10.142 15.0505 9.69603 15.5103C9.2498 15.9701 9.02669 16.5065 9.02669 17.1196C9.02669 17.4261 9.07791 17.7216 9.18036 18.0063C9.28303 18.291 9.44891 18.5504 9.67803 18.7846L16.001 25.123Z" fill="#0080C7"/>
</g>
</svg>
