<svg width="32" height="32" viewBox="0 0 32 32" fill="none" xmlns="http://www.w3.org/2000/svg">
<mask id="mask0_30_125" style="mask-type:alpha" maskUnits="userSpaceOnUse" x="0" y="0" width="32" height="32">
<rect width="32" height="32" fill="#D9D9D9"/>
</mask>
<g mask="url(#mask0_30_125)">
<path d="M16 28C13.8496 28 12.0898 27.7256 10.7207 27.1767C9.35133 26.628 8.66667 25.9196 8.66667 25.0513C8.66667 24.6376 8.862 24.2413 9.25267 23.8627C9.64311 23.4842 10.1786 23.1624 10.859 22.8973L11.9077 23.7873C11.5368 23.9273 11.1534 24.1128 10.7577 24.3437C10.3619 24.5743 10.1144 24.8017 10.0153 25.0257C10.1676 25.4668 10.8129 25.8506 11.9513 26.177C13.0898 26.5034 14.4351 26.6667 15.9873 26.6667C17.5393 26.6667 18.8901 26.5034 20.0397 26.177C21.1892 25.8506 21.8401 25.4668 21.9923 25.0257C21.9223 24.7966 21.6668 24.5667 21.2257 24.336C20.7846 24.1051 20.3674 23.9196 19.9743 23.7793L21.0153 22.882C21.7573 23.1522 22.3291 23.4766 22.7307 23.855C23.1324 24.2337 23.3333 24.6286 23.3333 25.0397C23.3333 25.9114 22.6487 26.6228 21.2793 27.1737C19.9102 27.7246 18.1504 28 16 28ZM16.0333 22.3333C18.2504 20.6084 19.9102 18.9209 21.0127 17.2707C22.1153 15.6202 22.6667 13.9983 22.6667 12.405C22.6667 10.0708 21.9487 8.30856 20.5127 7.11833C19.0769 5.92833 17.5769 5.33333 16.0127 5.33333C14.4487 5.33333 12.9444 5.929 11.5 7.12033C10.0556 8.31167 9.33333 10.0758 9.33333 12.4127C9.33333 13.9478 9.882 15.5338 10.9793 17.1707C12.0769 18.8073 13.7616 20.5282 16.0333 22.3333ZM16 24C13.3142 21.9604 11.3094 19.9797 9.98567 18.0577C8.66189 16.1357 8 14.2529 8 12.4093C8 11.0169 8.24056 9.79878 8.72167 8.755C9.203 7.71145 9.82822 6.83667 10.5973 6.13067C11.3667 5.42467 12.227 4.89311 13.1783 4.536C14.1297 4.17867 15.0716 4 16.004 4C16.9364 4 17.877 4.17867 18.8257 4.536C19.7743 4.89311 20.6333 5.42467 21.4027 6.13067C22.1718 6.83667 22.797 7.71222 23.2783 8.75733C23.7594 9.80222 24 11.0181 24 12.405C24 14.2492 23.3381 16.1327 22.0143 18.0553C20.6906 19.978 18.6858 21.9596 16 24ZM16.0127 14.3847C16.6009 14.3847 17.1048 14.1791 17.5243 13.768C17.9441 13.3569 18.154 12.8488 18.154 12.2437C18.154 11.6386 17.943 11.1261 17.521 10.7063C17.0992 10.2868 16.5922 10.077 16 10.077C15.4204 10.077 14.9166 10.2879 14.4883 10.7097C14.0601 11.1314 13.846 11.6384 13.846 12.2307C13.846 12.8444 14.0601 13.3569 14.4883 13.768C14.9166 14.1791 15.4247 14.3847 16.0127 14.3847Z" fill="#616161"/>
</g>
</svg>
