<svg width="32" height="32" viewBox="0 0 32 32" fill="none" xmlns="http://www.w3.org/2000/svg">
<mask id="mask0_28_2571" style="mask-type:alpha" maskUnits="userSpaceOnUse" x="0" y="0" width="32" height="32">
<rect width="32" height="32" fill="#D9D9D9"/>
</mask>
<g mask="url(#mask0_28_2571)">
<path d="M8.12298 25.1974C7.24276 24.3085 6.55776 23.2921 6.06798 22.1484C5.5782 21.0044 5.33331 19.8216 5.33331 18.6C5.33331 17.3709 5.57009 16.1457 6.04365 14.9244C6.5172 13.703 7.27698 12.5692 8.32298 11.523C9.1692 10.677 10.2414 10.0061 11.5396 9.51036C12.8381 9.01458 14.2492 8.65258 15.773 8.42436C17.297 8.19614 18.8765 8.07003 20.5116 8.04603C22.1465 8.02225 23.7213 8.06158 25.236 8.16402C25.3453 9.63069 25.388 11.1777 25.364 12.805C25.3402 14.4324 25.2082 16.0106 24.968 17.5397C24.7278 19.0688 24.3611 20.4876 23.868 21.796C23.3749 23.1047 22.7112 24.1761 21.877 25.0104C20.853 26.0512 19.7482 26.8098 18.5626 27.286C17.3773 27.762 16.1875 28 14.9933 28C13.7413 28 12.5033 27.7551 11.2793 27.2654C10.0555 26.7756 9.00342 26.0862 8.12298 25.1974ZM10.3693 25.2924C11.0649 25.7557 11.82 26.1006 12.6346 26.327C13.4491 26.5535 14.2375 26.6667 15 26.6667C16.0338 26.6667 17.0563 26.4654 18.0676 26.0627C19.079 25.6602 20.0316 24.9949 20.9256 24.0667C21.3225 23.6667 21.7249 23.1056 22.1326 22.3834C22.5404 21.6611 22.8931 20.7167 23.1906 19.55C23.4882 18.3834 23.7142 16.9722 23.8686 15.3167C24.0229 13.6611 24.0615 11.6889 23.9846 9.40003C22.8958 9.35558 21.6594 9.34747 20.2756 9.37569C18.8919 9.40392 17.5094 9.52225 16.1283 9.73069C14.747 9.93936 13.4495 10.2574 12.236 10.6847C11.0222 11.112 10.0521 11.6889 9.32565 12.4154C8.34276 13.3982 7.65387 14.417 7.25898 15.4717C6.86409 16.5266 6.66665 17.5096 6.66665 18.4207C6.66665 19.6291 6.90809 20.7577 7.39098 21.8064C7.87387 22.855 8.45809 23.6735 9.14365 24.2617C9.70076 22.689 10.5623 21.18 11.7283 19.7347C12.8941 18.2894 14.5249 16.9419 16.6206 15.6924C15.0889 17.0239 13.8012 18.4406 12.7576 19.9424C11.7141 21.4441 10.918 23.2275 10.3693 25.2924Z" fill="#616161"/>
</g>
</svg>
