<svg width="32" height="32" viewBox="0 0 32 32" fill="none" xmlns="http://www.w3.org/2000/svg">
<mask id="mask0_863_293" style="mask-type:alpha" maskUnits="userSpaceOnUse" x="0" y="0" width="32" height="32">
<rect width="32" height="32" fill="#D9D9D9"/>
</mask>
<g mask="url(#mask0_863_293)">
<path d="M16.0004 28.4332C17.6671 26.8554 18.9726 25.3388 19.9171 23.8832C20.8615 22.4276 21.3338 21.1999 21.3338 20.1999C21.3338 18.6665 20.8171 17.361 19.7838 16.2832C18.7504 15.2054 17.4893 14.6665 16.0004 14.6665C14.5115 14.6665 13.2504 15.2054 12.2171 16.2832C11.1838 17.361 10.6671 18.6665 10.6671 20.1999C10.6671 21.1999 11.1393 22.4276 12.0838 23.8832C13.0282 25.3388 14.3338 26.8554 16.0004 28.4332ZM16.0004 30.2305C13.7902 28.2494 12.1265 26.4221 11.0094 24.7485C9.89232 23.075 9.33376 21.5588 9.33376 20.1999C9.33376 18.3092 9.97776 16.6921 11.2658 15.3485C12.5538 14.005 14.132 13.3332 16.0004 13.3332C17.8689 13.3332 19.4471 14.005 20.7351 15.3485C22.0231 16.6921 22.6671 18.3092 22.6671 20.1999C22.6671 21.6614 22.0872 23.2033 20.9274 24.8255C19.7677 26.4478 18.1253 28.2494 16.0004 30.2305ZM16.0004 21.4872C16.4193 21.4872 16.7719 21.344 17.0581 21.0575C17.3445 20.7713 17.4878 20.4188 17.4878 19.9999C17.4878 19.581 17.3445 19.2284 17.0581 18.9422C16.7719 18.6558 16.4193 18.5125 16.0004 18.5125C15.5815 18.5125 15.229 18.6558 14.9428 18.9422C14.6563 19.2284 14.5131 19.581 14.5131 19.9999C14.5131 20.4188 14.6563 20.7713 14.9428 21.0575C15.229 21.344 15.5815 21.4872 16.0004 21.4872ZM11.2928 9.52287L10.3748 8.60487C11.1612 7.9382 12.0355 7.42287 12.9978 7.05887C13.9602 6.69464 14.9611 6.51253 16.0004 6.51253C17.0398 6.51253 18.0407 6.69464 19.0031 7.05887C19.9653 7.42287 20.8397 7.9382 21.6261 8.60487L20.7081 9.52287C20.0465 8.96398 19.3102 8.54475 18.4991 8.2652C17.688 7.98564 16.8551 7.84587 16.0004 7.84587C15.1458 7.84587 14.3129 7.98564 13.5018 8.2652C12.6906 8.54475 11.9543 8.96398 11.2928 9.52287ZM7.53376 5.7562L6.60809 4.81253C7.90565 3.63475 9.36209 2.73475 10.9774 2.11253C12.5928 1.49031 14.2671 1.1792 16.0004 1.1792C17.7509 1.1792 19.4338 1.49031 21.0491 2.11253C22.6644 2.73475 24.1209 3.64331 25.4184 4.8382L24.4748 5.78953C23.3072 4.72464 21.9987 3.91231 20.5491 3.35253C19.0995 2.79253 17.5833 2.51253 16.0004 2.51253C14.4346 2.51253 12.924 2.78698 11.4684 3.33587C10.0129 3.88453 8.70132 4.69131 7.53376 5.7562Z" fill="#616161"/>
</g>
</svg>
