<svg width="32" height="32" viewBox="0 0 32 32" fill="none" xmlns="http://www.w3.org/2000/svg">
<mask id="mask0_137_1568" style="mask-type:alpha" maskUnits="userSpaceOnUse" x="0" y="0" width="32" height="32">
<rect width="32" height="32" fill="#D9D9D9"/>
</mask>
<g mask="url(#mask0_137_1568)">
<path d="M16.0002 28.433C17.6669 26.8552 18.9725 25.3385 19.9169 23.883C20.8614 22.4274 21.3336 21.1996 21.3336 20.1996C21.3336 18.6663 20.8169 17.3607 19.7836 16.283C18.7502 15.2052 17.4891 14.6663 16.0002 14.6663C14.5114 14.6663 13.2502 15.2052 12.2169 16.283C11.1836 17.3607 10.6669 18.6663 10.6669 20.1996C10.6669 21.1996 11.1391 22.4274 12.0836 23.883C13.028 25.3385 14.3336 26.8552 16.0002 28.433ZM16.0002 30.2303C13.79 28.2492 12.1264 26.4218 11.0092 24.7483C9.89213 23.0747 9.33358 21.5585 9.33358 20.1996C9.33358 18.309 9.97758 16.6918 11.2656 15.3483C12.5536 14.0047 14.1318 13.333 16.0002 13.333C17.8687 13.333 19.4469 14.0047 20.7349 15.3483C22.0229 16.6918 22.6669 18.309 22.6669 20.1996C22.6669 21.6612 22.087 23.2031 20.9272 24.8253C19.7675 26.4475 18.1251 28.2492 16.0002 30.2303ZM16.0002 21.487C16.4191 21.487 16.7717 21.3437 17.0579 21.0573C17.3444 20.7711 17.4876 20.4185 17.4876 19.9996C17.4876 19.5807 17.3444 19.2282 17.0579 18.942C16.7717 18.6555 16.4191 18.5123 16.0002 18.5123C15.5814 18.5123 15.2288 18.6555 14.9426 18.942C14.6561 19.2282 14.5129 19.5807 14.5129 19.9996C14.5129 20.4185 14.6561 20.7711 14.9426 21.0573C15.2288 21.3437 15.5814 21.487 16.0002 21.487ZM11.2926 9.52262L10.3746 8.60462C11.161 7.93796 12.0354 7.42262 12.9976 7.05862C13.96 6.6944 14.9609 6.51229 16.0002 6.51229C17.0396 6.51229 18.0405 6.6944 19.0029 7.05862C19.9651 7.42262 20.8395 7.93796 21.6259 8.60462L20.7079 9.52262C20.0464 8.96373 19.31 8.54451 18.4989 8.26496C17.6878 7.9854 16.8549 7.84562 16.0002 7.84562C15.1456 7.84562 14.3127 7.9854 13.5016 8.26496C12.6905 8.54451 11.9541 8.96373 11.2926 9.52262ZM7.53358 5.75595L6.60791 4.81229C7.90547 3.63451 9.36191 2.73451 10.9772 2.11229C12.5926 1.49007 14.2669 1.17896 16.0002 1.17896C17.7507 1.17896 19.4336 1.49007 21.0489 2.11229C22.6642 2.73451 24.1207 3.64307 25.4182 4.83796L24.4746 5.78929C23.307 4.7244 21.9985 3.91207 20.5489 3.35229C19.0994 2.79229 17.5831 2.51229 16.0002 2.51229C14.4345 2.51229 12.9238 2.78673 11.4682 3.33562C10.0127 3.88429 8.70113 4.69107 7.53358 5.75595Z" fill="white"/>
</g>
</svg>
