<svg width="32" height="32" viewBox="0 0 32 32" fill="none" xmlns="http://www.w3.org/2000/svg">
<mask id="mask0_823_165" style="mask-type:alpha" maskUnits="userSpaceOnUse" x="0" y="0" width="32" height="32">
<rect width="32" height="32" fill="#D9D9D9"/>
</mask>
<g mask="url(#mask0_823_165)">
<path d="M11.324 27.0546C9.86333 26.4246 8.59267 25.5696 7.512 24.4896C6.43133 23.4096 5.57589 22.1396 4.94567 20.6796C4.31522 19.2196 4 17.6596 4 15.9996V5.99956L11.0333 11.2892C11.7907 10.1252 12.5868 8.99189 13.4217 7.88923C14.2568 6.78678 15.1162 5.72101 16 4.69189C16.7949 5.61501 17.6137 6.63167 18.4563 7.74189C19.2992 8.85212 20.1249 10.0346 20.9333 11.2892L28 5.99956V15.9996C28 17.6596 27.6851 19.2196 27.0553 20.6796C26.4256 22.1396 25.5709 23.4096 24.4913 24.4896C23.4118 25.5696 22.1422 26.4246 20.6827 27.0546C19.2233 27.6846 17.6639 27.9996 16.0043 27.9996C14.345 27.9996 12.7849 27.6846 11.324 27.0546ZM23.5667 23.5662C25.6333 21.4996 26.6667 18.9773 26.6667 15.9996V8.66623L20.5333 13.2662C19.5333 11.6662 18.7222 10.3996 18.1 9.46623C17.4778 8.53289 16.7778 7.59956 16 6.66623C15.2222 7.62178 14.5 8.58845 13.8333 9.56623C13.1667 10.544 12.3778 11.7773 11.4667 13.2662L5.33333 8.66623V15.9996C5.33333 18.9773 6.36667 21.4996 8.43333 23.5662C10.5 25.6329 13.0222 26.6662 16 26.6662C18.9778 26.6662 21.5 25.6329 23.5667 23.5662Z" fill="#0080C7"/>
</g>
</svg>
