<svg width="32" height="32" viewBox="0 0 32 32" fill="none" xmlns="http://www.w3.org/2000/svg">
<mask id="mask0_152_706" style="mask-type:alpha" maskUnits="userSpaceOnUse" x="0" y="0" width="32" height="32">
<rect width="32" height="32" fill="#D9D9D9"/>
</mask>
<g mask="url(#mask0_152_706)">
<path d="M8.66667 3.99996C7.718 3.99996 6.92522 4.52985 6.28833 5.58963C5.65167 6.6494 5.33333 7.89729 5.33333 9.33329C5.33333 10.6137 5.54056 11.8783 5.955 13.127C6.36967 14.3756 6.88044 15.412 7.48733 16.236L10.359 15.5283C10.6821 14.8172 11.0363 13.8735 11.4217 12.6973C11.8072 11.5213 12 10.4 12 9.33329C12 7.89729 11.6817 6.6494 11.045 5.58963C10.4081 4.52985 9.61533 3.99996 8.66667 3.99996ZM10.5 21.3333C10.9393 21.3333 11.2991 21.1692 11.5793 20.841C11.8598 20.5127 12 20.088 12 19.5666C12 19.1888 11.8983 18.7572 11.695 18.2716C11.4914 17.7863 11.2153 17.2855 10.8667 16.7693L8 17.4873C8 18.6495 8.21578 19.5811 8.64733 20.282C9.07911 20.9828 9.69667 21.3333 10.5 21.3333ZM23.3333 10.6666C22.3847 10.6666 21.5919 11.1965 20.955 12.2563C20.3183 13.3161 20 14.564 20 16C20 17.0666 20.197 18.1824 20.591 19.3473C20.985 20.5124 21.335 21.4616 21.641 22.195L24.4103 23.0563C25.2052 21.8221 25.78 20.6802 26.1347 19.6306C26.4893 18.5811 26.6667 17.3708 26.6667 16C26.6667 14.564 26.3483 13.3161 25.7117 12.2563C25.0748 11.1965 24.282 10.6666 23.3333 10.6666ZM21.5 28C22.2693 28 22.8783 27.6581 23.327 26.9743C23.7757 26.2905 24 25.4102 24 24.3333L21.159 23.4103C20.9299 23.8238 20.6794 24.2776 20.4077 24.7716C20.1359 25.2656 20 25.7528 20 26.2333C20 26.6948 20.1474 27.1046 20.4423 27.4626C20.7372 27.8208 21.0898 28 21.5 28ZM10.5 22.6666C9.30178 22.6666 8.35644 22.1957 7.664 21.254C6.97178 20.312 6.63933 19.1204 6.66667 17.6793L5.86167 16.1896C5.41211 15.4872 4.98944 14.5034 4.59367 13.2383C4.19789 11.9734 4 10.6717 4 9.33329C4 7.4204 4.44278 5.83107 5.32833 4.56529C6.21367 3.29952 7.32644 2.66663 8.66667 2.66663C10.0256 2.66663 11.1431 3.32607 12.0193 4.64496C12.8953 5.96362 13.3333 7.5264 13.3333 9.33329C13.3333 10.5026 13.1513 11.6616 12.7873 12.8103C12.4231 13.959 12.0734 14.9094 11.7383 15.6616L12.3383 16.659C12.6017 17.0896 12.8333 17.5713 13.0333 18.104C13.2333 18.6364 13.3333 19.124 13.3333 19.5666C13.3333 20.4573 13.0671 21.1966 12.5347 21.7846C12.0022 22.3726 11.324 22.6666 10.5 22.6666ZM21.5 29.3333C20.676 29.3333 19.9978 29.0393 19.4653 28.4513C18.9329 27.8633 18.6667 27.124 18.6667 26.2333C18.6667 25.7906 18.7667 25.3031 18.9667 24.7706C19.1667 24.238 19.3983 23.7563 19.6617 23.3256L20.2617 22.3283C19.9437 21.5932 19.5983 20.647 19.2257 19.4896C18.853 18.3325 18.6667 17.1693 18.6667 16C18.6667 14.1931 19.1047 12.6303 19.9807 11.3116C20.8569 9.99274 21.9744 9.33329 23.3333 9.33329C24.6736 9.33329 25.7863 9.96618 26.6717 11.232C27.5572 12.4977 28 14.0871 28 16C28 17.3384 27.8064 18.6303 27.4193 19.8756C27.032 21.121 26.605 22.112 26.1383 22.8486L25.3333 24.1153C25.3384 25.3 25.056 26.4657 24.486 27.6126C23.9158 28.7597 22.9204 29.3333 21.5 29.3333Z" fill="#616161"/>
</g>
</svg>
