<svg width="32" height="32" viewBox="0 0 32 32" fill="none" xmlns="http://www.w3.org/2000/svg">
<mask id="mask0_137_1526" style="mask-type:alpha" maskUnits="userSpaceOnUse" x="0" y="0" width="32" height="32">
<rect width="32" height="32" fill="#D9D9D9"/>
</mask>
<g mask="url(#mask0_137_1526)">
<path d="M7.99979 29.4874V28.8207C7.99979 25.7147 8.62712 23.2988 9.88179 21.573C11.1365 19.8475 12.8373 17.9898 14.9845 16C12.8202 14.0103 11.1108 12.1526 9.85612 10.427C8.60145 8.70125 7.97412 6.28536 7.97412 3.17936V2.5127H9.30745V3.17936C9.30745 3.62914 9.32157 4.05781 9.34979 4.46536C9.37801 4.87314 9.4289 5.26503 9.50245 5.64103H22.4715C22.545 5.26503 22.5959 4.87314 22.6241 4.46536C22.6523 4.05781 22.6665 3.62914 22.6665 3.17936V2.5127H23.9998V3.17936C23.9998 6.28536 23.3725 8.70125 22.1178 10.427C20.8631 12.1526 19.1622 14.0103 17.0151 16C19.1622 17.9727 20.8631 19.8261 22.1178 21.5604C23.3725 23.2946 23.9998 25.7147 23.9998 28.8207V29.4874H22.6665V28.8207C22.6665 28.3709 22.6523 27.9423 22.6241 27.5347C22.5959 27.1269 22.545 26.735 22.4715 26.359H9.52812C9.45457 26.735 9.40368 27.1269 9.37545 27.5347C9.34723 27.9423 9.33312 28.3709 9.33312 28.8207V29.4874H7.99979ZM11.6511 10.6667H20.3228C20.7315 10.1249 21.0969 9.55314 21.4191 8.95136C21.7413 8.34958 21.9999 7.69058 22.1948 6.97436H9.77912C9.99112 7.68547 10.2497 8.33892 10.5548 8.9347C10.8599 9.53047 11.2253 10.1078 11.6511 10.6667ZM15.9998 15.1127C16.598 14.564 17.1638 14.0325 17.6971 13.518C18.2305 13.0034 18.7288 12.4974 19.1921 12H12.7818C13.2451 12.4974 13.7477 13.0034 14.2895 13.518C14.8315 14.0325 15.4016 14.564 15.9998 15.1127ZM12.8075 20H19.1921C18.7288 19.5027 18.2305 18.9967 17.6971 18.482C17.1638 17.9676 16.598 17.436 15.9998 16.8874C15.4016 17.436 14.8358 17.9676 14.3025 18.482C13.7691 18.9967 13.2708 19.5027 12.8075 20ZM9.80479 25.0257H22.1948C21.9828 24.3146 21.7242 23.6611 21.4191 23.0654C21.114 22.4696 20.7486 21.8923 20.3228 21.3334H11.6768C11.251 21.8923 10.8813 22.4684 10.5678 23.0617C10.254 23.6548 9.99968 24.3095 9.80479 25.0257Z" fill="#616161"/>
</g>
</svg>
