<svg width="32" height="32" viewBox="0 0 32 32" fill="none" xmlns="http://www.w3.org/2000/svg">
<mask id="mask0_30_122" style="mask-type:alpha" maskUnits="userSpaceOnUse" x="0" y="0" width="32" height="32">
<rect width="32" height="32" fill="#D9D9D9"/>
</mask>
<g mask="url(#mask0_30_122)">
<path d="M5.35633 17.154C5.33411 16.9658 5.31744 16.7734 5.30633 16.577C5.29522 16.3803 5.28967 16.188 5.28967 16C5.28967 14.5213 5.57089 13.1354 6.13333 11.8423C6.69578 10.5492 7.46156 9.41931 8.43067 8.45265C9.4 7.48598 10.5342 6.72442 11.8333 6.16798C13.1324 5.61153 14.5213 5.33331 16 5.33331C17.4958 5.33331 18.8944 5.61153 20.196 6.16798C21.4978 6.72442 22.632 7.48598 23.5987 8.45265C24.5653 9.41931 25.3311 10.5492 25.896 11.8423C26.4611 13.1354 26.7437 14.5213 26.7437 16C26.7437 16.188 26.7381 16.3803 26.727 16.577C26.7159 16.7734 26.6992 16.9658 26.677 17.154H25.336C25.3633 16.9658 25.3826 16.7734 25.3937 16.577C25.4048 16.3803 25.4103 16.188 25.4103 16C25.4103 15.6922 25.3962 15.3845 25.368 15.077C25.3398 14.7692 25.2949 14.47 25.2333 14.1793H20.3513C20.3907 14.47 20.4146 14.7692 20.423 15.077C20.4317 15.3845 20.436 15.6922 20.436 16V16.577C20.436 16.7734 20.4249 16.9658 20.4027 17.154H19.1027V16.2333C19.1027 15.864 19.0971 15.5119 19.086 15.177C19.0749 14.8419 19.0497 14.5093 19.0103 14.1793H12.9973C12.958 14.5093 12.9328 14.8419 12.9217 15.177C12.9106 15.5119 12.905 15.864 12.905 16.2333V17.154H11.605C11.5828 16.9658 11.5717 16.7734 11.5717 16.577V16C11.5717 15.6922 11.576 15.3845 11.5847 15.077C11.5931 14.7692 11.617 14.47 11.6563 14.1793H6.8C6.73844 14.47 6.69356 14.7692 6.66533 15.077C6.63711 15.3845 6.623 15.6922 6.623 16C6.623 16.188 6.62856 16.3803 6.63967 16.577C6.65078 16.7734 6.67 16.9658 6.69733 17.154H5.35633ZM7.18967 12.846H11.8027C12.0316 11.412 12.3691 10.2091 12.8153 9.23731C13.2616 8.26531 13.8197 7.4682 14.4897 6.84598C12.8077 7.07509 11.3111 7.72776 10 8.80398C8.68889 9.87998 7.75211 11.2273 7.18967 12.846ZM13.1847 12.846H18.8153C18.6273 11.7366 18.3069 10.6709 17.854 9.64865C17.4009 8.62642 16.7829 7.71787 16 6.92298C15.2171 7.73498 14.6021 8.64787 14.155 9.66165C13.7081 10.6752 13.3847 11.7366 13.1847 12.846ZM20.205 12.846H24.8437C24.2812 11.2102 23.3261 9.85853 21.9783 8.79098C20.6303 7.72342 19.1068 7.07509 17.4077 6.84598C18.1119 7.49576 18.6969 8.31676 19.1627 9.30898C19.6287 10.3012 19.9761 11.4802 20.205 12.846ZM15.3333 26.6666V26C15.3333 24.7862 14.906 23.7605 14.0513 22.923C13.1967 22.0854 12.1624 21.6666 10.9487 21.6666H4V20.3333H10.9487C12.0324 20.3333 13.0227 20.6051 13.9193 21.1486C14.8158 21.6922 15.5093 22.429 16 23.359C16.4907 22.429 17.1842 21.6922 18.0807 21.1486C18.9773 20.6051 19.959 20.3333 21.0257 20.3333H28V21.6666H21.0257C19.8119 21.6666 18.782 22.0854 17.936 22.923C17.0898 23.7605 16.6667 24.7862 16.6667 26V26.6666H15.3333Z" fill="#616161"/>
</g>
</svg>
