<svg width="32" height="32" viewBox="0 0 32 32" fill="none" xmlns="http://www.w3.org/2000/svg">
<mask id="mask0_30_182" style="mask-type:alpha" maskUnits="userSpaceOnUse" x="0" y="0" width="32" height="32">
<rect width="32" height="32" fill="#D9D9D9"/>
</mask>
<g mask="url(#mask0_30_182)">
<path d="M27.7409 28.6668L25.0873 26.0128C24.1179 26.7308 23.0316 27.0531 21.8283 26.9795C20.6247 26.9062 19.5879 26.4344 18.7179 25.5642C18.0393 24.8855 17.6094 24.0868 17.4283 23.1682C17.2469 22.2493 17.3144 21.3676 17.6306 20.5232C16.7861 20.8394 15.9088 20.9112 14.9986 20.7385C14.0884 20.5658 13.2854 20.1317 12.5896 19.4362C11.9109 18.7575 11.4768 17.9631 11.2873 17.0528C11.0975 16.1426 11.1607 15.2653 11.4769 14.4208C10.6325 14.7371 9.75514 14.8003 8.84492 14.6105C7.93447 14.4207 7.14003 13.9865 6.46159 13.3078C5.59136 12.4378 5.11525 11.3955 5.03325 10.1808C4.95125 8.96638 5.2777 7.88305 6.01259 6.93083L3.33325 4.2515L4.27692 3.3335L6.96392 5.9875C7.93325 5.2695 9.01959 4.94727 10.2229 5.02083C11.4265 5.09416 12.4633 5.56594 13.3333 6.43616C14.0119 7.11483 14.4418 7.90794 14.6229 8.8155C14.8043 9.72328 14.7368 10.5994 14.4206 11.4438C15.265 11.1276 16.1424 11.0699 17.0526 11.2708C17.9628 11.4715 18.7573 11.9112 19.4359 12.5898C20.1146 13.2685 20.5487 14.0617 20.7383 14.9695C20.928 15.8771 20.8648 16.7531 20.5486 17.5975C21.393 17.2813 22.2704 17.2108 23.1806 17.3862C24.0908 17.5613 24.8938 17.9967 25.5896 18.6925C26.4598 19.5625 26.9359 20.6035 27.0179 21.8155C27.0999 23.0275 26.7734 24.1096 26.0383 25.0618L28.6923 27.7155L27.7409 28.6668ZM22.1539 25.6668C23.135 25.6668 23.97 25.3224 24.6589 24.6335C25.3478 23.9446 25.6923 23.1096 25.6923 22.1285C25.6923 21.1472 25.3478 20.3164 24.6589 19.6362C23.97 18.9557 23.135 18.6155 22.1539 18.6155C21.1726 18.6155 20.3375 18.9538 19.6486 19.6305C18.9597 20.3069 18.6153 21.1396 18.6153 22.1285C18.6153 23.1096 18.9597 23.9446 19.6486 24.6335C20.3375 25.3224 21.1726 25.6668 22.1539 25.6668ZM16.0256 19.5385C17.0067 19.5385 17.8375 19.1941 18.5179 18.5052C19.1981 17.8163 19.5383 16.9813 19.5383 16.0002C19.5383 15.0191 19.2 14.1883 18.5236 13.5078C17.8469 12.8276 17.0143 12.4875 16.0256 12.4875C15.0445 12.4875 14.2095 12.8257 13.5206 13.5022C12.8317 14.1786 12.4873 15.0113 12.4873 16.0002C12.4873 16.9813 12.8317 17.8163 13.5206 18.5052C14.2095 19.1941 15.0445 19.5385 16.0256 19.5385ZM9.89725 13.4105C10.8786 13.4105 11.7094 13.0661 12.3896 12.3772C13.07 11.6883 13.4103 10.8532 13.4103 9.87183C13.4103 8.89072 13.0719 8.05572 12.3953 7.36683C11.7188 6.67794 10.8861 6.3335 9.89725 6.3335C8.91614 6.3335 8.08114 6.67794 7.39225 7.36683C6.70336 8.05572 6.35892 8.89072 6.35892 9.87183C6.35892 10.8532 6.70336 11.6883 7.39225 12.3772C8.08114 13.0661 8.91614 13.4105 9.89725 13.4105Z" fill="#616161"/>
</g>
</svg>
