<svg width="32" height="32" viewBox="0 0 32 32" fill="none" xmlns="http://www.w3.org/2000/svg">
<mask id="mask0_137_1521" style="mask-type:alpha" maskUnits="userSpaceOnUse" x="0" y="0" width="32" height="32">
<rect width="32" height="32" fill="#D9D9D9"/>
</mask>
<g mask="url(#mask0_137_1521)">
<path d="M15.6027 26.5897C15.7769 26.5897 15.9555 26.5504 16.1383 26.4717C16.3212 26.3933 16.4691 26.2976 16.582 26.1847L26.977 15.7897C27.3119 15.4548 27.5705 15.1121 27.7527 14.7617C27.9347 14.4113 28.0257 14.0266 28.0257 13.6077C28.0257 13.1837 27.9347 12.7721 27.7527 12.373C27.5705 11.9739 27.3119 11.6094 26.977 11.2794L21.977 6.27937C21.647 5.94448 21.3081 5.69881 20.9603 5.54237C20.6123 5.38592 20.2265 5.3077 19.8027 5.3077C19.3838 5.3077 18.9949 5.38592 18.636 5.54237C18.2769 5.69881 17.9385 5.94448 17.6207 6.27937L16.459 7.44103L18.9257 9.91537C19.1906 10.1751 19.388 10.4709 19.518 10.8027C19.6478 11.1343 19.7127 11.4709 19.7127 11.8127C19.7127 12.5069 19.4858 13.0809 19.032 13.5347C18.5782 13.9885 18.0043 14.2154 17.3103 14.2154C16.9683 14.2154 16.6346 14.1633 16.309 14.059C15.9835 13.9548 15.6907 13.7727 15.4307 13.5127L12.8793 10.9694L7.12301 16.7257C6.98812 16.8608 6.8869 17.0143 6.81934 17.186C6.75179 17.3578 6.71801 17.5308 6.71801 17.705C6.71801 18.0197 6.8189 18.2791 7.02067 18.4834C7.22223 18.6876 7.48034 18.7897 7.79501 18.7897C7.96923 18.7897 8.14779 18.7504 8.33067 18.6717C8.51356 18.5933 8.66145 18.4976 8.77434 18.3847L13 14.159L13.9437 15.1027L9.72567 19.3284C9.59056 19.4633 9.48923 19.6166 9.42167 19.7884C9.35434 19.9601 9.32067 20.1333 9.32067 20.3077C9.32067 20.6053 9.42579 20.8591 9.63601 21.0694C9.84623 21.2796 10.1 21.3847 10.3973 21.3847C10.5718 21.3847 10.7505 21.3454 10.9333 21.2667C11.1162 21.188 11.2641 21.0923 11.377 20.9794L15.9103 16.454L16.854 17.3974L12.3283 21.9307C12.2103 22.0436 12.1133 22.1915 12.0373 22.3744C11.9611 22.5573 11.923 22.7359 11.923 22.9104C11.923 23.2077 12.0281 23.4615 12.2383 23.6717C12.4488 23.8821 12.7027 23.9874 13 23.9874C13.1745 23.9874 13.3476 23.9536 13.5193 23.886C13.6911 23.8185 13.8445 23.7171 13.9793 23.582L18.5127 19.0564L19.4563 20L14.923 24.5334C14.7881 24.6685 14.6869 24.8305 14.6193 25.0194C14.5518 25.2083 14.518 25.3813 14.518 25.5384C14.518 25.853 14.6287 26.1069 14.85 26.3C15.0713 26.4931 15.3222 26.5897 15.6027 26.5897ZM15.595 27.923C14.9095 27.923 14.3227 27.6723 13.8347 27.1707C13.3467 26.6689 13.1326 26.0496 13.1923 25.3127C12.4368 25.3214 11.8077 25.0958 11.305 24.636C10.8026 24.176 10.5641 23.5341 10.5897 22.7104C9.7659 22.7188 9.11679 22.4834 8.64234 22.004C8.1679 21.5245 7.95212 20.8924 7.99501 20.1077C7.25301 20.1164 6.63245 19.9078 6.13334 19.482C5.63423 19.0565 5.38467 18.4641 5.38467 17.705C5.38467 17.3633 5.4509 17.021 5.58334 16.6784C5.71579 16.3355 5.9119 16.0341 6.17167 15.7744L12.8793 9.07437L16.323 12.518C16.4359 12.636 16.5752 12.733 16.741 12.809C16.9068 12.885 17.094 12.923 17.3027 12.923C17.588 12.923 17.8401 12.8235 18.059 12.6244C18.2779 12.4253 18.3873 12.1658 18.3873 11.846C18.3873 11.6376 18.3492 11.4505 18.273 11.2847C18.197 11.1189 18.1 10.9796 17.982 10.8667L13.395 6.27937C13.065 5.94448 12.7218 5.69881 12.3653 5.54237C12.0089 5.38592 11.6188 5.3077 11.195 5.3077C10.7761 5.3077 10.3958 5.38592 10.054 5.54237C9.71201 5.69881 9.37345 5.94448 9.03834 6.27937L4.97934 10.346C4.69401 10.6316 4.46334 10.9718 4.28734 11.3667C4.11112 11.7616 4.0179 12.1693 4.00767 12.5897C3.99745 12.8906 4.02312 13.1799 4.08467 13.4577C4.14623 13.7355 4.24367 13.9966 4.37701 14.241L3.36667 15.2514C3.14267 14.894 2.96745 14.4825 2.84101 14.0167C2.71456 13.5509 2.65645 13.0753 2.66667 12.5897C2.6769 11.9846 2.79823 11.4047 3.03067 10.85C3.26312 10.2954 3.59567 9.80181 4.02834 9.36937L8.06168 5.33603C8.52656 4.87603 9.01845 4.53414 9.53734 4.31037C10.056 4.08637 10.6171 3.97437 11.2207 3.97437C11.824 3.97437 12.3808 4.08637 12.891 4.31037C13.4012 4.53414 13.8862 4.87603 14.346 5.33603L15.5077 6.49737L16.6693 5.33603C17.1342 4.87603 17.6218 4.53414 18.132 4.31037C18.6422 4.08637 19.1991 3.97437 19.8027 3.97437C20.406 3.97437 20.9671 4.08637 21.486 4.31037C22.0047 4.53414 22.494 4.87603 22.954 5.33603L27.9207 10.3027C28.3805 10.7625 28.7351 11.2787 28.9847 11.8514C29.2342 12.424 29.359 13.012 29.359 13.6154C29.359 14.2189 29.2342 14.7758 28.9847 15.286C28.7351 15.7963 28.3805 16.2813 27.9207 16.741L17.5257 27.1284C17.2488 27.4053 16.9475 27.6069 16.6217 27.7334C16.2961 27.8598 15.9539 27.923 15.595 27.923Z" fill="#616161"/>
</g>
</svg>
