<svg width="32" height="32" viewBox="0 0 32 32" fill="none" xmlns="http://www.w3.org/2000/svg">
<mask id="mask0_28_2557" style="mask-type:alpha" maskUnits="userSpaceOnUse" x="0" y="0" width="32" height="32">
<rect width="32" height="32" fill="#D9D9D9"/>
</mask>
<g mask="url(#mask0_28_2557)">
<path d="M11.3082 21.3077V19.9743H13.5672C13.5075 20.1966 13.4609 20.4146 13.4276 20.6283C13.3942 20.8419 13.3741 21.0683 13.3672 21.3077H11.3082ZM11.1289 28C9.5238 28 8.15668 27.4483 7.02757 26.345C5.89846 25.2414 5.33391 23.8957 5.33391 22.3077V10.205C4.72013 10.205 4.19924 9.99522 3.77124 9.57567C3.34302 9.15589 3.12891 8.63922 3.12891 8.02567V6.205C3.12891 5.59145 3.34302 5.07056 3.77124 4.64233C4.19924 4.21411 4.72013 4 5.33391 4H16.8979C17.5117 4 18.0369 4.21411 18.4736 4.64233C18.9105 5.07056 19.1289 5.59145 19.1289 6.205V8.02567C19.1289 8.63922 18.9105 9.15589 18.4736 9.57567C18.0369 9.99522 17.5117 10.205 16.8979 10.205V15.1873C16.6895 15.3324 16.4955 15.4862 16.3159 15.6487C16.1364 15.8111 15.9655 15.988 15.8032 16.1793H11.3082V14.846H15.5646V10.205H6.66724V22.3077C6.66724 23.5386 7.10313 24.5728 7.97491 25.4103C8.84668 26.2479 9.89802 26.6667 11.1289 26.6667C11.71 26.6667 12.2515 26.565 12.7532 26.3617C13.2548 26.1581 13.703 25.8778 14.0979 25.5207C14.1904 25.7429 14.2921 25.9471 14.4032 26.1333C14.5143 26.3196 14.6399 26.5076 14.7799 26.6973C14.2826 27.1042 13.7262 27.4231 13.1109 27.654C12.4956 27.8847 11.8349 28 11.1289 28ZM5.33391 8.87167H16.8979C17.1372 8.87167 17.3467 8.79056 17.5262 8.62833C17.7058 8.46589 17.7956 8.265 17.7956 8.02567V6.205C17.7956 5.96567 17.7058 5.76056 17.5262 5.58967C17.3467 5.41878 17.1372 5.33333 16.8979 5.33333H5.33391C5.09457 5.33333 4.88946 5.41878 4.71857 5.58967C4.54768 5.76056 4.46224 5.96567 4.46224 6.205V8.02567C4.46224 8.265 4.54768 8.46589 4.71857 8.62833C4.88946 8.79056 5.09457 8.87167 5.33391 8.87167ZM21.5646 25.7437C22.6006 25.7437 23.4835 25.3787 24.2132 24.6487C24.9432 23.9189 25.3082 23.036 25.3082 22C25.3082 20.964 24.9432 20.0811 24.2132 19.3513C23.4835 18.6213 22.6006 18.2563 21.5646 18.2563C20.5288 18.2563 19.6459 18.6213 18.9159 19.3513C18.1861 20.0811 17.8212 20.964 17.8212 22C17.8212 23.036 18.1861 23.9189 18.9159 24.6487C19.6459 25.3787 20.5288 25.7437 21.5646 25.7437ZM28.3646 29.718L24.6622 26.0153C24.2074 26.3607 23.7176 26.6239 23.1929 26.805C22.668 26.9863 22.1252 27.077 21.5646 27.077C20.1544 27.077 18.9557 26.5833 17.9686 25.596C16.9815 24.6089 16.4879 23.4102 16.4879 22C16.4879 20.5898 16.9815 19.3911 17.9686 18.404C18.9557 17.4167 20.1544 16.923 21.5646 16.923C22.9748 16.923 24.1736 17.4167 25.1609 18.404C26.148 19.3911 26.6416 20.5898 26.6416 22C26.6416 22.5607 26.551 23.1034 26.3699 23.6283C26.1886 24.153 25.9252 24.6427 25.5799 25.0973L29.2826 28.8L28.3646 29.718Z" fill="#616161"/>
</g>
</svg>
