<svg width="32" height="32" viewBox="0 0 32 32" fill="none" xmlns="http://www.w3.org/2000/svg">
<mask id="mask0_137_1653" style="mask-type:alpha" maskUnits="userSpaceOnUse" x="0" y="0" width="32" height="32">
<rect width="32" height="32" fill="#D9D9D9"/>
</mask>
<g mask="url(#mask0_137_1653)">
<path d="M15.9998 16C15.2476 16 14.6152 15.7436 14.1025 15.2307C13.5896 14.718 13.3332 14.0856 13.3332 13.3333C13.3332 12.5811 13.5896 11.9487 14.1025 11.436C14.6152 10.9231 15.2476 10.6667 15.9998 10.6667C16.7521 10.6667 17.3845 10.9231 17.8972 11.436C18.4101 11.9487 18.6665 12.5811 18.6665 13.3333C18.6665 14.0856 18.4101 14.718 17.8972 15.2307C17.3845 15.7436 16.7521 16 15.9998 16ZM9.33317 28.6153V19.8283C8.48873 18.9974 7.83317 18.023 7.3665 16.905C6.89984 15.787 6.6665 14.5964 6.6665 13.3333C6.6665 10.7278 7.57028 8.52078 9.37784 6.71233C11.1854 4.90411 13.3914 4 15.9958 4C18.6003 4 20.8076 4.90411 22.6178 6.71233C24.4281 8.52078 25.3332 10.7278 25.3332 13.3333C25.3332 14.5964 25.0998 15.787 24.6332 16.905C24.1665 18.023 23.5109 18.9974 22.6665 19.8283V28.6153L15.9998 26.6153L9.33317 28.6153ZM15.9998 21.3333C18.2221 21.3333 20.1109 20.5556 21.6665 19C23.2221 17.4444 23.9998 15.5556 23.9998 13.3333C23.9998 11.1111 23.2221 9.22222 21.6665 7.66667C20.1109 6.11111 18.2221 5.33333 15.9998 5.33333C13.7776 5.33333 11.8887 6.11111 10.3332 7.66667C8.77761 9.22222 7.99984 11.1111 7.99984 13.3333C7.99984 15.5556 8.77761 17.4444 10.3332 19C11.8887 20.5556 13.7776 21.3333 15.9998 21.3333ZM10.6665 26.7257L15.9998 25.2307L21.3332 26.7257V20.9513C20.5896 21.4982 19.7617 21.9209 18.8495 22.2193C17.9371 22.5176 16.9853 22.6667 15.9942 22.6667C15.0031 22.6667 14.0533 22.5176 13.1448 22.2193C12.2362 21.9209 11.4101 21.4982 10.6665 20.9513V26.7257Z" fill="#616161"/>
</g>
</svg>
