<svg width="32" height="32" viewBox="0 0 32 32" fill="none" xmlns="http://www.w3.org/2000/svg">
<mask id="mask0_30_139" style="mask-type:alpha" maskUnits="userSpaceOnUse" x="0" y="0" width="32" height="32">
<rect width="32" height="32" fill="#D9D9D9"/>
</mask>
<g mask="url(#mask0_30_139)">
<path d="M16.0001 16C15.2479 16 14.6154 15.7436 14.1027 15.2307C13.5899 14.718 13.3334 14.0856 13.3334 13.3333C13.3334 12.5811 13.5899 11.9487 14.1027 11.436C14.6154 10.9231 15.2479 10.6667 16.0001 10.6667C16.7523 10.6667 17.3847 10.9231 17.8974 11.436C18.4103 11.9487 18.6667 12.5811 18.6667 13.3333C18.6667 14.0856 18.4103 14.718 17.8974 15.2307C17.3847 15.7436 16.7523 16 16.0001 16ZM9.33341 28.6153V19.8283C8.48897 18.9974 7.83341 18.023 7.36675 16.905C6.90008 15.787 6.66675 14.5964 6.66675 13.3333C6.66675 10.7278 7.57053 8.52078 9.37808 6.71233C11.1856 4.90411 13.3916 4 15.9961 4C18.6005 4 20.8079 4.90411 22.6181 6.71233C24.4283 8.52078 25.3334 10.7278 25.3334 13.3333C25.3334 14.5964 25.1001 15.787 24.6334 16.905C24.1667 18.023 23.5112 18.9974 22.6667 19.8283V28.6153L16.0001 26.6153L9.33341 28.6153ZM16.0001 21.3333C18.2223 21.3333 20.1112 20.5556 21.6667 19C23.2223 17.4444 24.0001 15.5556 24.0001 13.3333C24.0001 11.1111 23.2223 9.22222 21.6667 7.66667C20.1112 6.11111 18.2223 5.33333 16.0001 5.33333C13.7779 5.33333 11.889 6.11111 10.3334 7.66667C8.77786 9.22222 8.00008 11.1111 8.00008 13.3333C8.00008 15.5556 8.77786 17.4444 10.3334 19C11.889 20.5556 13.7779 21.3333 16.0001 21.3333ZM10.6667 26.7257L16.0001 25.2307L21.3334 26.7257V20.9513C20.5899 21.4982 19.762 21.9209 18.8497 22.2193C17.9373 22.5176 16.9855 22.6667 15.9944 22.6667C15.0033 22.6667 14.0535 22.5176 13.1451 22.2193C12.2364 21.9209 11.4103 21.4982 10.6667 20.9513V26.7257Z" fill="white"/>
</g>
</svg>
