<svg width="32" height="32" viewBox="0 0 32 32" fill="none" xmlns="http://www.w3.org/2000/svg">
<mask id="mask0_137_1664" style="mask-type:alpha" maskUnits="userSpaceOnUse" x="0" y="0" width="32" height="32">
<rect width="32" height="32" fill="#D9D9D9"/>
</mask>
<g mask="url(#mask0_137_1664)">
<path d="M16.0043 28C14.345 28 12.7897 27.6884 11.3383 27.0653C9.88722 26.4422 8.61833 25.5923 7.53167 24.5157C6.445 23.439 5.58467 22.1728 4.95067 20.717C4.31689 19.2614 4 17.7062 4 16.0513H5.33333C5.33333 17.518 5.61533 18.897 6.17933 20.1883C6.74356 21.4799 7.509 22.609 8.47567 23.5757C9.44233 24.5423 10.5729 25.3047 11.8673 25.8627C13.162 26.4209 14.5396 26.7 16 26.7C18.9778 26.7 21.5 25.6667 23.5667 23.6C25.6333 21.5333 26.6667 19.0111 26.6667 16.0333C26.6667 13.0556 25.6333 10.5333 23.5667 8.46667C21.5 6.4 18.9778 5.36667 16 5.36667C13.8342 5.36667 11.8944 5.93544 10.1807 7.073C8.46711 8.21056 7.18633 9.699 6.33833 11.5383H10.205V12.8717H4V6.66667H5.33333V10.641C6.29911 8.65989 7.72556 7.05778 9.61267 5.83467C11.5 4.61155 13.6291 4 16 4C17.66 4 19.22 4.31489 20.68 4.94467C22.14 5.57445 23.41 6.42911 24.49 7.50867C25.57 8.58822 26.425 9.85778 27.055 11.3173C27.685 12.7767 28 14.3361 28 15.9957C28 17.655 27.6851 19.2151 27.0553 20.676C26.4256 22.1367 25.5709 23.4073 24.4913 24.488C23.4118 25.5687 22.1422 26.4241 20.6827 27.0543C19.2233 27.6848 17.6639 28 16.0043 28ZM13.3333 21.0257C12.9991 21.0257 12.719 20.9127 12.493 20.6867C12.267 20.4604 12.154 20.1802 12.154 19.846V15.846C12.154 15.512 12.2818 15.2319 12.5373 15.0057C12.7929 14.7797 13.1096 14.6667 13.4873 14.6667V13.1793C13.4873 12.4884 13.7333 11.8969 14.2253 11.4047C14.7173 10.9127 15.3089 10.6667 16 10.6667C16.6911 10.6667 17.2827 10.9127 17.7747 11.4047C18.2667 11.8969 18.5127 12.4884 18.5127 13.1793V14.6667C18.8904 14.6667 19.2071 14.7797 19.4627 15.0057C19.7182 15.2319 19.846 15.512 19.846 15.846V19.846C19.846 20.1802 19.733 20.4604 19.507 20.6867C19.281 20.9127 19.0009 21.0257 18.6667 21.0257H13.3333ZM14.5127 14.6667H17.4873V13.1893C17.4873 12.7709 17.3424 12.4168 17.0527 12.127C16.7629 11.8372 16.412 11.6923 16 11.6923C15.588 11.6923 15.2371 11.8372 14.9473 12.127C14.6576 12.4168 14.5127 12.7709 14.5127 13.1893V14.6667Z" fill="#616161"/>
</g>
</svg>
