<svg width="32" height="32" viewBox="0 0 32 32" fill="none" xmlns="http://www.w3.org/2000/svg">
<mask id="mask0_152_841" style="mask-type:alpha" maskUnits="userSpaceOnUse" x="0" y="0" width="32" height="32">
<rect width="32" height="32" fill="#D9D9D9"/>
</mask>
<g mask="url(#mask0_152_841)">
<path d="M15.1793 22.0005H16.8207V18.6671H20.154V17.0261H16.8207V13.6928H15.1793V17.0261H11.846V18.6671H15.1793V22.0005ZM10.154 26.5131C9.56156 26.5131 9.05444 26.3022 8.63267 25.8805C8.21089 25.4587 8 24.9517 8 24.3595V11.3338C8 10.7416 8.21089 10.2346 8.63267 9.81279C9.05444 9.39079 9.56156 9.17979 10.154 9.17979H21.846C22.4384 9.17979 22.9456 9.39079 23.3673 9.81279C23.7891 10.2346 24 10.7416 24 11.3338V24.3595C24 24.9517 23.7891 25.4587 23.3673 25.8805C22.9456 26.3022 22.4384 26.5131 21.846 26.5131H10.154ZM10.154 25.1798H21.846C22.0513 25.1798 22.2394 25.0944 22.4103 24.9235C22.5812 24.7526 22.6667 24.5646 22.6667 24.3595V11.3338C22.6667 11.1287 22.5812 10.9407 22.4103 10.7698C22.2394 10.5987 22.0513 10.5131 21.846 10.5131H10.154C9.94867 10.5131 9.76056 10.5987 9.58967 10.7698C9.41878 10.9407 9.33333 11.1287 9.33333 11.3338V24.3595C9.33333 24.5646 9.41878 24.7526 9.58967 24.9235C9.76056 25.0944 9.94867 25.1798 10.154 25.1798ZM8.61533 6.82113V5.48779H23.3847V6.82113H8.61533Z" fill="#616161"/>
</g>
</svg>
