<svg width="32" height="32" viewBox="0 0 32 32" fill="none" xmlns="http://www.w3.org/2000/svg">
<mask id="mask0_30_181" style="mask-type:alpha" maskUnits="userSpaceOnUse" x="0" y="0" width="32" height="32">
<rect width="32" height="32" fill="#D9D9D9"/>
</mask>
<g mask="url(#mask0_30_181)">
<path d="M18.5127 12.7896V11.5486C19.2292 11.1861 19.9963 10.9143 20.8141 10.7332C21.6321 10.5521 22.4719 10.4616 23.3334 10.4616C23.8256 10.4616 24.2983 10.4931 24.7514 10.5562C25.2043 10.6196 25.6719 10.7093 26.1541 10.8256V12.0359C25.689 11.887 25.2355 11.784 24.7937 11.7269C24.3517 11.6696 23.865 11.6409 23.3334 11.6409C22.4719 11.6409 21.6309 11.7379 20.8104 11.9319C19.9897 12.1259 19.2239 12.4118 18.5127 12.7896ZM18.5127 20.0716V18.7792C19.195 18.417 19.9579 18.1452 20.8014 17.9639C21.645 17.7828 22.489 17.6922 23.3334 17.6922C23.8256 17.6922 24.2983 17.7239 24.7514 17.7872C25.2043 17.8503 25.6719 17.94 26.1541 18.0562V19.2666C25.689 19.1179 25.2355 19.0149 24.7937 18.9576C24.3517 18.9002 23.865 18.8716 23.3334 18.8716C22.4719 18.8716 21.6309 18.9759 20.8104 19.1846C19.9897 19.393 19.2239 19.6887 18.5127 20.0716ZM18.5127 16.4562V15.1639C19.2292 14.8017 19.9963 14.5299 20.8141 14.3486C21.6321 14.1675 22.4719 14.0769 23.3334 14.0769C23.8256 14.0769 24.2983 14.1085 24.7514 14.1716C25.2043 14.2349 25.6719 14.3247 26.1541 14.4409V15.6512C25.689 15.5026 25.2355 15.3996 24.7937 15.3422C24.3517 15.2849 23.865 15.2562 23.3334 15.2562C22.4719 15.2562 21.6309 15.3618 20.8104 15.5729C19.9897 15.784 19.2239 16.0785 18.5127 16.4562ZM8.66675 21.3846C9.83075 21.3846 10.9627 21.5183 12.0627 21.7859C13.1627 22.0535 14.253 22.4889 15.3334 23.0922V10.0102C14.371 9.3229 13.3103 8.80746 12.1514 8.4639C10.9923 8.12034 9.83075 7.94857 8.66675 7.94857C7.86675 7.94857 7.1663 7.99646 6.56541 8.09223C5.96453 8.18801 5.29741 8.36579 4.56408 8.62557C4.35897 8.69401 4.21375 8.79234 4.12841 8.92057C4.04286 9.04857 4.00008 9.18957 4.00008 9.34357V21.3639C4.00008 21.6032 4.08553 21.7785 4.25641 21.8896C4.4273 22.0007 4.61541 22.0136 4.82075 21.9282C5.30786 21.764 5.87064 21.6323 6.50908 21.5332C7.14753 21.4341 7.86675 21.3846 8.66675 21.3846ZM16.6667 23.0922C17.7472 22.4889 18.8374 22.0535 19.9374 21.7859C21.0374 21.5183 22.1694 21.3846 23.3334 21.3846C24.1334 21.3846 24.8526 21.4341 25.4911 21.5332C26.1295 21.6323 26.6923 21.764 27.1794 21.9282C27.3847 22.0136 27.5729 22.0007 27.7437 21.8896C27.9146 21.7785 28.0001 21.6032 28.0001 21.3639V9.34357C28.0001 9.18957 27.9573 9.05279 27.8717 8.93323C27.7864 8.81368 27.6412 8.71112 27.4361 8.62557C26.7027 8.36579 26.0356 8.18801 25.4347 8.09223C24.8339 7.99646 24.1334 7.94857 23.3334 7.94857C22.1694 7.94857 21.0079 8.12034 19.8487 8.4639C18.6899 8.80746 17.6292 9.3229 16.6667 10.0102V23.0922ZM16.0001 25.0256C14.9163 24.2836 13.7522 23.7135 12.5077 23.3152C11.2633 22.917 9.98297 22.7179 8.66675 22.7179C7.97275 22.7179 7.29108 22.776 6.62175 22.8922C5.95264 23.0085 5.30097 23.1948 4.66675 23.4512C4.18297 23.6443 3.72875 23.5862 3.30408 23.2769C2.87919 22.9676 2.66675 22.5402 2.66675 21.9949V9.10757C2.66675 8.77757 2.75353 8.47157 2.92708 8.18957C3.10064 7.90757 3.34375 7.71101 3.65641 7.5999C4.4393 7.25457 5.25386 7.00412 6.10008 6.84857C6.9463 6.69301 7.80186 6.61523 8.66675 6.61523C9.97275 6.61523 11.2466 6.80323 12.4884 7.17923C13.7304 7.55546 14.901 8.10257 16.0001 8.82057C17.0992 8.10257 18.2697 7.55546 19.5117 7.17923C20.7535 6.80323 22.0274 6.61523 23.3334 6.61523C24.1983 6.61523 25.0539 6.69301 25.9001 6.84857C26.7463 7.00412 27.5609 7.25457 28.3437 7.5999C28.6564 7.71101 28.8995 7.90757 29.0731 8.18957C29.2466 8.47157 29.3334 8.77757 29.3334 9.10757V21.9949C29.3334 22.5402 29.104 22.959 28.6451 23.2512C28.186 23.5435 27.6974 23.593 27.1794 23.3999C26.5625 23.1606 25.9322 22.987 25.2884 22.8792C24.6449 22.7717 23.9932 22.7179 23.3334 22.7179C22.0172 22.7179 20.7369 22.917 19.4924 23.3152C18.248 23.7135 17.0839 24.2836 16.0001 25.0256Z" fill="#616161"/>
</g>
</svg>
