<svg width="32" height="32" viewBox="0 0 32 32" fill="none" xmlns="http://www.w3.org/2000/svg">
<mask id="mask0_30_169" style="mask-type:alpha" maskUnits="userSpaceOnUse" x="0" y="0" width="32" height="32">
<rect width="32" height="32" fill="#D9D9D9"/>
</mask>
<g mask="url(#mask0_30_169)">
<path d="M5.30762 28.6668V21.3335C5.30762 20.4104 5.6324 19.6241 6.28195 18.9745C6.93151 18.3249 7.71784 18.0002 8.64095 18.0002H11.3076C12.6067 18.0002 13.7093 17.5472 14.6153 16.6412C15.5213 15.7352 15.9743 14.6326 15.9743 13.3335C15.9743 12.7848 15.7782 12.3143 15.386 11.9218C14.9935 11.5296 14.523 11.3335 13.9743 11.3335C13.4118 11.3335 12.938 11.1407 12.5526 10.7552C12.1671 10.3698 11.9743 9.89594 11.9743 9.3335V3.3335H13.3333V9.3335C13.3333 9.5215 13.3931 9.67961 13.5126 9.80783C13.6324 9.93605 13.7863 10.0002 13.9743 10.0002C14.8974 10.0002 15.6837 10.3249 16.3333 10.9745C16.9828 11.6241 17.3076 12.4104 17.3076 13.3335C17.3076 14.9899 16.7217 16.4041 15.55 17.5758C14.3782 18.7476 12.9641 19.3335 11.3076 19.3335H8.64095C8.09228 19.3335 7.62173 19.5296 7.22928 19.9218C6.83706 20.3143 6.64095 20.7848 6.64095 21.3335V28.6668H5.30762ZM26.6666 16.3155C26.4597 16.1479 26.2495 15.9963 26.036 15.8605C25.8222 15.7245 25.588 15.5933 25.3333 15.4668V14.6668C25.3333 12.6857 24.6918 10.9682 23.409 9.51416C22.1261 8.06038 20.5196 7.3335 18.5896 7.3335C17.8734 7.3335 17.2627 7.07661 16.7576 6.56283C16.2525 6.04927 16 5.44294 16 4.74383V3.3335H17.3333V4.74383L18.5896 6.00016C20.8992 6.00016 22.8227 6.85439 24.3603 8.56283C25.8978 10.2715 26.6666 12.3062 26.6666 14.6668V16.3155ZM9.33328 28.6668V26.6668C9.33328 25.7437 9.65806 24.9574 10.3076 24.3078C10.9572 23.6583 11.7435 23.3335 12.6666 23.3335H14.846C14.8802 23.5779 14.9234 23.8071 14.9756 24.0208C15.0278 24.2344 15.0975 24.4497 15.1846 24.6668H12.6666C12.118 24.6668 11.6474 24.8629 11.255 25.2552C10.8627 25.6476 10.6666 26.1182 10.6666 26.6668V28.6668H9.33328ZM22 24.7952C22.7675 24.7952 23.4295 24.5169 23.986 23.9605C24.5424 23.4041 24.8206 22.7421 24.8206 21.9745C24.8206 21.2069 24.5424 20.5449 23.986 19.9885C23.4295 19.4323 22.7675 19.1542 22 19.1542C21.2324 19.1542 20.5704 19.4323 20.014 19.9885C19.4575 20.5449 19.1793 21.2069 19.1793 21.9745C19.1793 22.7421 19.4575 23.4041 20.014 23.9605C20.5704 24.5169 21.2324 24.7952 22 24.7952ZM27.5616 28.6412L24.3153 25.4208C23.9837 25.6482 23.6256 25.8229 23.241 25.9452C22.8563 26.0674 22.4426 26.1285 22 26.1285C20.8411 26.1285 19.8591 25.7259 19.054 24.9208C18.2486 24.1155 17.846 23.1334 17.846 21.9745C17.846 20.8156 18.2486 19.8336 19.054 19.0285C19.8591 18.2234 20.8411 17.8208 22 17.8208C23.1588 17.8208 24.1408 18.2234 24.946 19.0285C25.7513 19.8336 26.154 20.8156 26.154 21.9745C26.154 22.4514 26.0744 22.9048 25.9153 23.3348C25.7564 23.7646 25.5376 24.1539 25.259 24.5028L28.4796 27.7232L27.5616 28.6412Z" fill="#616161"/>
</g>
</svg>
