<svg width="32" height="32" viewBox="0 0 32 32" fill="none" xmlns="http://www.w3.org/2000/svg">
<mask id="mask0_28_2564" style="mask-type:alpha" maskUnits="userSpaceOnUse" x="0" y="0" width="32" height="32">
<rect width="32" height="32" fill="#D9D9D9"/>
</mask>
<g mask="url(#mask0_28_2564)">
<path d="M15.3333 26.2845V16.3818L6.66668 11.3638V20.8048C6.66668 20.9417 6.7009 21.07 6.76934 21.1895C6.83757 21.3093 6.94012 21.4118 7.07701 21.4972L15.3333 26.2845ZM16.6667 26.2845L24.923 21.4972C25.0599 21.4118 25.1625 21.3093 25.2307 21.1895C25.2991 21.07 25.3333 20.9417 25.3333 20.8048V11.3638L16.6667 16.3818V26.2845ZM14.923 27.5818L6.41034 22.6768C6.07345 22.4837 5.80979 22.2213 5.61934 21.8895C5.42868 21.558 5.33334 21.199 5.33334 20.8125V11.1872C5.33334 10.8007 5.42868 10.4417 5.61934 10.1102C5.80979 9.7784 6.07345 9.51595 6.41034 9.32284L14.923 4.41784C15.2599 4.22473 15.6189 4.12817 16 4.12817C16.3811 4.12817 16.7401 4.22473 17.077 4.41784L25.5897 9.32284C25.9266 9.51595 26.1902 9.7784 26.3807 10.1102C26.5713 10.4417 26.6667 10.8007 26.6667 11.1872V20.8125C26.6667 21.199 26.5713 21.558 26.3807 21.8895C26.1902 22.2213 25.9266 22.4837 25.5897 22.6768L17.077 27.5818C16.7401 27.775 16.3811 27.8715 16 27.8715C15.6189 27.8715 15.2599 27.775 14.923 27.5818ZM20.9487 12.3665L24.5667 10.2845L16.4103 5.56384C16.2735 5.47851 16.1367 5.43584 16 5.43584C15.8633 5.43584 15.7266 5.47851 15.5897 5.56384L12.4 7.39717L20.9487 12.3665ZM16 15.2358L19.6 13.1458L11.0333 8.19484L7.43334 10.2845L16 15.2358Z" fill="#616161"/>
</g>
</svg>
