<svg width="32" height="32" viewBox="0 0 32 32" fill="none" xmlns="http://www.w3.org/2000/svg">
<mask id="mask0_152_836" style="mask-type:alpha" maskUnits="userSpaceOnUse" x="0" y="0" width="32" height="32">
<rect width="32" height="32" fill="#ffffff"/>
</mask>
<g mask="url(#mask0_152_836)">
<path d="M11.5002 26.6668C9.78727 26.6668 8.33127 26.0673 7.13216 24.8682C5.93305 23.6691 5.3335 22.2131 5.3335 20.5002C5.3335 19.6711 5.4925 18.8779 5.8105 18.1208C6.1285 17.3635 6.57461 16.6976 7.14883 16.1232L16.1232 7.14883C16.6976 6.57461 17.3635 6.1285 18.1208 5.8105C18.8779 5.4925 19.6711 5.3335 20.5002 5.3335C22.2131 5.3335 23.6691 5.93305 24.8682 7.13216C26.0673 8.33127 26.6668 9.78727 26.6668 11.5002C26.6668 12.3293 26.5078 13.1224 26.1898 13.8795C25.8718 14.6368 25.4257 15.3027 24.8515 15.8772L15.8772 24.8515C15.3027 25.4257 14.6368 25.8718 13.8795 26.1898C13.1224 26.5078 12.3293 26.6668 11.5002 26.6668ZM19.9052 18.9285L23.9335 14.9335C24.3779 14.4891 24.7224 13.9668 24.9668 13.3668C25.2113 12.7668 25.3335 12.1446 25.3335 11.5002C25.3335 10.1668 24.8613 9.02794 23.9168 8.0835C22.9724 7.13905 21.8335 6.66683 20.5002 6.66683C19.8557 6.66683 19.2335 6.78905 18.6335 7.0335C18.0335 7.27794 17.5113 7.62239 17.0668 8.06683L13.0718 12.0952L19.9052 18.9285ZM11.5002 25.3335C12.1446 25.3335 12.7668 25.2113 13.3668 24.9668C13.9668 24.7224 14.4891 24.3779 14.9335 23.9335L18.9285 19.9052L12.0952 13.0718L8.06683 17.0668C7.62239 17.5113 7.27794 18.0335 7.0335 18.6335C6.78905 19.2335 6.66683 19.8557 6.66683 20.5002C6.66683 21.8335 7.13905 22.9724 8.0835 23.9168C9.02794 24.8613 10.1668 25.3335 11.5002 25.3335Z" fill="#ffffff"/>
</g>
</svg>
