<svg width="32" height="32" viewBox="0 0 32 32" fill="none" xmlns="http://www.w3.org/2000/svg">
<mask id="mask0_165_5348" style="mask-type:alpha" maskUnits="userSpaceOnUse" x="0" y="0" width="32" height="32">
<rect width="32" height="32" fill="#D9D9D9"/>
</mask>
<g mask="url(#mask0_165_5348)">
<path d="M16 28.6411C13.1162 27.8547 10.7287 26.1572 8.83733 23.5488C6.94578 20.9403 6 18.0241 6 14.8001V7.12843L16 3.38477L26 7.12843V14.8001C26 16.4923 25.7227 18.1338 25.168 19.7244C24.6133 21.3151 23.7916 22.7728 22.7027 24.0974L18.5127 19.9078C18.1469 20.1607 17.7491 20.3504 17.3193 20.4771C16.8893 20.6035 16.4496 20.6668 16 20.6668C14.7167 20.6668 13.6181 20.2098 12.7043 19.2958C11.7903 18.382 11.3333 17.2834 11.3333 16.0001C11.3333 14.7168 11.7903 13.6182 12.7043 12.7044C13.6181 11.7904 14.7167 11.3334 16 11.3334C17.2833 11.3334 18.3819 11.7904 19.2957 12.7044C20.2097 13.6182 20.6667 14.7168 20.6667 16.0001C20.6667 16.4501 20.6056 16.8849 20.4833 17.3044C20.3611 17.7238 20.1863 18.1232 19.959 18.5028L22.446 20.9898C22.9247 20.0531 23.3033 19.0698 23.582 18.0398C23.8607 17.01 24 15.9301 24 14.8001V8.5001L16 5.51277L8 8.5001V14.8001C8 17.489 8.75556 19.9334 10.2667 22.1334C11.7778 24.3334 13.6889 25.8001 16 26.5334C16.5778 26.3557 17.1278 26.1279 17.65 25.8501C18.1722 25.5723 18.6889 25.2445 19.2 24.8668L20.5537 26.2974C19.8546 26.8377 19.135 27.3022 18.395 27.6911C17.6548 28.08 16.8564 28.3967 16 28.6411ZM16 18.6668C16.7333 18.6668 17.3611 18.4057 17.8833 17.8834C18.4056 17.3612 18.6667 16.7334 18.6667 16.0001C18.6667 15.2668 18.4056 14.639 17.8833 14.1168C17.3611 13.5945 16.7333 13.3334 16 13.3334C15.2667 13.3334 14.6389 13.5945 14.1167 14.1168C13.5944 14.639 13.3333 15.2668 13.3333 16.0001C13.3333 16.7334 13.5944 17.3612 14.1167 17.8834C14.6389 18.4057 15.2667 18.6668 16 18.6668Z" fill="#F5F5F7"/>
</g>
</svg>
