<svg width="32" height="32" viewBox="0 0 32 32" fill="none" xmlns="http://www.w3.org/2000/svg">
<mask id="mask0_863_298" style="mask-type:alpha" maskUnits="userSpaceOnUse" x="0" y="0" width="32" height="32">
<rect width="32" height="32" fill="#D9D9D9"/>
</mask>
<g mask="url(#mask0_863_298)">
<path d="M6.35158 25.9486V23.7949H10.3822L6.93092 12.5076C6.34803 12.2256 5.88358 11.8222 5.53758 11.2973C5.19136 10.7726 5.01825 10.1693 5.01825 9.48726C5.01825 8.56415 5.34303 7.77782 5.99258 7.12826C6.64214 6.47871 7.42847 6.15393 8.35158 6.15393C9.16692 6.15393 9.86647 6.40393 10.4503 6.90393C11.034 7.40393 11.425 8.04282 11.6233 8.8206H16.5052V6.8206C16.5052 6.63082 16.5689 6.47226 16.6963 6.34493C16.8238 6.2176 16.9824 6.15393 17.1719 6.15393C17.3208 6.15393 17.4511 6.19838 17.5629 6.28726C17.6749 6.37615 17.7464 6.49238 17.7773 6.63593V6.99493L20.1976 4.75893C20.3805 4.57604 20.5852 4.46538 20.8119 4.42693C21.0384 4.38849 21.2593 4.42738 21.4746 4.5436L26.5209 6.89227C26.6849 6.97427 26.8084 7.09182 26.8913 7.24493C26.9741 7.39782 26.9771 7.55371 26.9003 7.7126C26.8183 7.87682 26.7007 7.98071 26.5476 8.02426C26.3947 8.06782 26.2387 8.05115 26.0796 7.97426L21.0233 5.6206L17.8386 8.55393V10.4206L21.0233 13.2873L26.0796 10.9333C26.2387 10.8564 26.396 10.841 26.5516 10.8873C26.7071 10.9333 26.8234 11.0358 26.9003 11.1949C26.9823 11.3589 26.9806 11.5162 26.8953 11.6666C26.8097 11.817 26.6849 11.9333 26.5209 12.0153L21.4746 14.3793C21.2593 14.4957 21.0384 14.5304 20.8119 14.4833C20.5852 14.4362 20.3805 14.3297 20.1976 14.1639L17.7773 11.9793V12.3383C17.7464 12.4716 17.6749 12.5853 17.5629 12.6793C17.4511 12.7735 17.3208 12.8206 17.1719 12.8206C16.9824 12.8206 16.8238 12.7568 16.6963 12.6293C16.5689 12.5019 16.5052 12.3435 16.5052 12.1539V10.1539H11.6233C11.5566 10.4513 11.4459 10.746 11.2913 11.0383C11.1366 11.3307 10.9669 11.5744 10.7822 11.7693L17.2439 23.7949H22.3516V25.9486H6.35158ZM8.35158 11.4873C8.90025 11.4873 9.37069 11.291 9.76292 10.8986C10.1554 10.5064 10.3516 10.0359 10.3516 9.48726C10.3516 8.93838 10.1554 8.46782 9.76292 8.0756C9.37069 7.68338 8.90025 7.48727 8.35158 7.48727C7.80292 7.48727 7.33236 7.68338 6.93992 8.0756C6.54769 8.46782 6.35158 8.93838 6.35158 9.48726C6.35158 10.0359 6.54769 10.5064 6.93992 10.8986C7.33236 11.291 7.80292 11.4873 8.35158 11.4873ZM11.7822 23.7949H15.7156L9.67458 12.5639C9.53792 12.6495 9.34481 12.7222 9.09525 12.7819C8.84569 12.8417 8.61825 12.8546 8.41292 12.8206L11.7822 23.7949Z" fill="#616161"/>
</g>
</svg>
