<svg width="32" height="32" viewBox="0 0 32 32" fill="none" xmlns="http://www.w3.org/2000/svg">
<mask id="mask0_31_508" style="mask-type:alpha" maskUnits="userSpaceOnUse" x="0" y="0" width="32" height="32">
<rect width="32" height="32" fill="#D9D9D9"/>
</mask>
<g mask="url(#mask0_31_508)">
<path d="M6.35152 25.9488V23.7952H10.3822L6.93086 12.5078C6.34797 12.2258 5.88352 11.8224 5.53752 11.2975C5.1913 10.7728 5.01819 10.1695 5.01819 9.48751C5.01819 8.5644 5.34297 7.77806 5.99252 7.12851C6.64208 6.47895 7.42841 6.15418 8.35152 6.15418C9.16686 6.15418 9.86641 6.40418 10.4502 6.90418C11.034 7.40418 11.425 8.04306 11.6232 8.82084H16.5052V6.82084C16.5052 6.63106 16.5689 6.47251 16.6962 6.34518C16.8237 6.21784 16.9823 6.15418 17.1719 6.15418C17.3207 6.15418 17.4511 6.19862 17.5629 6.28751C17.6749 6.3764 17.7463 6.49262 17.7772 6.63618V6.99517L20.1975 4.75918C20.3804 4.57629 20.5852 4.46562 20.8119 4.42718C21.0383 4.38873 21.2592 4.42762 21.4745 4.54384L26.5209 6.89251C26.6849 6.97451 26.8083 7.09206 26.8912 7.24518C26.9741 7.39806 26.9771 7.55395 26.9002 7.71284C26.8182 7.87706 26.7006 7.98095 26.5475 8.02451C26.3946 8.06806 26.2386 8.0514 26.0795 7.97451L21.0232 5.62084L17.8385 8.55418V10.4208L21.0232 13.2875L26.0795 10.9335C26.2386 10.8566 26.396 10.8413 26.5515 10.8875C26.7071 10.9335 26.8233 11.0361 26.9002 11.1952C26.9822 11.3592 26.9805 11.5164 26.8952 11.6668C26.8096 11.8173 26.6849 11.9335 26.5209 12.0155L21.4745 14.3795C21.2592 14.496 21.0383 14.5306 20.8119 14.4835C20.5852 14.4364 20.3804 14.33 20.1975 14.1642L17.7772 11.9795V12.3385C17.7463 12.4718 17.6749 12.5855 17.5629 12.6795C17.4511 12.7737 17.3207 12.8208 17.1719 12.8208C16.9823 12.8208 16.8237 12.7571 16.6962 12.6295C16.5689 12.5022 16.5052 12.3437 16.5052 12.1542V10.1542H11.6232C11.5565 10.4515 11.4459 10.7463 11.2912 11.0385C11.1365 11.331 10.9669 11.5746 10.7822 11.7695L17.2439 23.7952H22.3515V25.9488H6.35152ZM8.35152 11.4875C8.90019 11.4875 9.37063 11.2913 9.76286 10.8988C10.1553 10.5066 10.3515 10.0362 10.3515 9.48751C10.3515 8.93862 10.1553 8.46807 9.76286 8.07584C9.37063 7.68362 8.90019 7.48751 8.35152 7.48751C7.80286 7.48751 7.3323 7.68362 6.93986 8.07584C6.54763 8.46807 6.35152 8.93862 6.35152 9.48751C6.35152 10.0362 6.54763 10.5066 6.93986 10.8988C7.3323 11.2913 7.80286 11.4875 8.35152 11.4875ZM11.7822 23.7952H15.7155L9.67452 12.5642C9.53786 12.6497 9.34474 12.7224 9.09519 12.7822C8.84563 12.842 8.61819 12.8548 8.41286 12.8208L11.7822 23.7952Z" fill="white"/>
</g>
</svg>
