<svg width="32" height="32" viewBox="0 0 32 32" fill="none" xmlns="http://www.w3.org/2000/svg">
<mask id="mask0_926_33" style="mask-type:alpha" maskUnits="userSpaceOnUse" x="0" y="0" width="32" height="32">
<rect width="32" height="32" fill="#D9D9D9"/>
</mask>
<g mask="url(#mask0_926_33)">
<path d="M9.33325 28V22.9847C8.06659 21.8291 7.08325 20.5303 6.38325 19.0883C5.68325 17.6466 5.33325 16.1641 5.33325 14.641C5.33325 11.6837 6.3717 9.17089 8.44859 7.10267C10.5255 5.03422 13.0426 4 15.9999 4C18.4017 4 20.5723 4.73122 22.5116 6.19367C24.4509 7.65611 25.7086 9.54456 26.2846 11.859L27.6589 17.3333C27.7529 17.67 27.6923 17.9764 27.4769 18.2527C27.2616 18.5287 26.9744 18.6667 26.6153 18.6667H23.9999V23.1793C23.9999 23.776 23.7901 24.2842 23.3706 24.704C22.9508 25.1236 22.4426 25.3333 21.8459 25.3333H18.6666V28H17.3333V24H21.8459C22.0853 24 22.2819 23.9231 22.4359 23.7693C22.5897 23.6153 22.6666 23.4187 22.6666 23.1793V17.3333H26.2666L24.9999 12.1667C24.4888 10.1273 23.3914 8.47867 21.7076 7.22067C20.0238 5.96244 18.1213 5.33333 15.9999 5.33333C13.4221 5.33333 11.2221 6.23756 9.39992 8.046C7.5777 9.85467 6.66659 12.0479 6.66659 14.6257C6.66659 15.959 6.93881 17.2213 7.48325 18.4127C8.0277 19.6042 8.79992 20.6667 9.79992 21.6L10.6666 22.4V28H9.33325ZM15.2563 19.436H16.7436L16.8409 18.205C17.1896 18.1383 17.5217 18.0221 17.8373 17.8563C18.1526 17.6906 18.417 17.4752 18.6306 17.2103L19.7026 17.7487L20.4459 16.482L19.4716 15.764C19.6187 15.3982 19.6923 15.0324 19.6923 14.6667C19.6923 14.3009 19.6187 13.9351 19.4716 13.5693L20.4459 12.8513L19.7026 11.5847L18.6306 12.123C18.417 11.8581 18.1526 11.6428 17.8373 11.477C17.5217 11.3112 17.1896 11.195 16.8409 11.1283L16.7436 9.89733H15.2563L15.1589 11.1283C14.8103 11.195 14.4781 11.3112 14.1626 11.477C13.8473 11.6428 13.5828 11.8581 13.3693 12.123L12.2973 11.5847L11.5539 12.8513L12.5283 13.5693C12.3811 13.9351 12.3076 14.3009 12.3076 14.6667C12.3076 15.0324 12.3811 15.3982 12.5283 15.764L11.5539 16.482L12.2973 17.7487L13.3693 17.2103C13.5828 17.4752 13.8473 17.6906 14.1626 17.8563C14.4781 18.0221 14.8103 18.1383 15.1589 18.205L15.2563 19.436ZM14.2373 16.4293C13.7541 15.9464 13.5126 15.3589 13.5126 14.6667C13.5126 13.9744 13.7541 13.3869 14.2373 12.904C14.7201 12.4209 15.3077 12.1793 15.9999 12.1793C16.6921 12.1793 17.2797 12.4209 17.7626 12.904C18.2457 13.3869 18.4873 13.9744 18.4873 14.6667C18.4873 15.3589 18.2457 15.9464 17.7626 16.4293C17.2797 16.9124 16.6921 17.154 15.9999 17.154C15.3077 17.154 14.7201 16.9124 14.2373 16.4293Z" fill="#0080C7"/>
</g>
</svg>
