<svg width="32" height="32" viewBox="0 0 32 32" fill="none" xmlns="http://www.w3.org/2000/svg">
<mask id="mask0_152_723" style="mask-type:alpha" maskUnits="userSpaceOnUse" x="0" y="0" width="32" height="32">
<rect width="32" height="32" fill="#D9D9D9"/>
</mask>
<g mask="url(#mask0_152_723)">
<path d="M15.3335 27.3333V16.8027C14.0822 16.8027 12.8864 16.5689 11.7462 16.1013C10.6062 15.6338 9.59599 14.9598 8.71555 14.0793C7.83532 13.1991 7.16699 12.1838 6.71055 11.0333C6.2541 9.88288 6.02588 8.68377 6.02588 7.43599V6.10266H7.35921C8.58299 6.10266 9.76777 6.34144 10.9135 6.81899C12.0595 7.29655 13.0697 7.97399 13.9439 8.85133C14.6499 9.55733 15.2221 10.3599 15.6605 11.259C16.099 12.1581 16.3891 13.1085 16.5309 14.1103C16.7275 13.7325 16.9481 13.3774 17.1925 13.045C17.437 12.7123 17.7139 12.3913 18.0232 12.082C18.9012 11.2049 19.9159 10.5274 21.0672 10.0497C22.2183 9.5721 23.4182 9.33333 24.6669 9.33333H26.0002V10.6667C26.0002 11.916 25.7611 13.1164 25.2829 14.268C24.8049 15.4198 24.1267 16.4349 23.2482 17.3133C22.37 18.1915 21.3664 18.8589 20.2375 19.3153C19.1084 19.7718 17.9182 20 16.6669 20V27.3333H15.3335ZM15.3592 15.436C15.3592 14.3693 15.1537 13.3527 14.7425 12.386C14.3314 11.4193 13.7481 10.5582 12.9925 9.80266C12.237 9.04711 11.3759 8.46377 10.4092 8.05266C9.44254 7.64155 8.42588 7.43599 7.35921 7.43599C7.35921 8.50266 7.55921 9.52488 7.95921 10.5027C8.35921 11.4804 8.93699 12.3471 9.69254 13.1027C10.4481 13.8582 11.3148 14.436 12.2925 14.836C13.2703 15.236 14.2925 15.436 15.3592 15.436ZM16.6669 18.6667C17.7335 18.6667 18.7502 18.4667 19.7169 18.0667C20.6835 17.6667 21.5447 17.0889 22.3002 16.3333C23.0558 15.5778 23.6391 14.7111 24.0502 13.7333C24.4613 12.7555 24.6669 11.7333 24.6669 10.6667C23.6002 10.6667 22.578 10.8722 21.6002 11.2833C20.6224 11.6944 19.7558 12.2778 19.0002 13.0333C18.2447 13.7889 17.6669 14.65 17.2669 15.6167C16.8669 16.5833 16.6669 17.6 16.6669 18.6667Z" fill="#616161"/>
</g>
</svg>
