<svg width="32" height="32" viewBox="0 0 32 32" fill="none" xmlns="http://www.w3.org/2000/svg">
<mask id="mask0_137_1685" style="mask-type:alpha" maskUnits="userSpaceOnUse" x="0" y="0" width="32" height="32">
<rect width="32" height="32" fill="#D9D9D9"/>
</mask>
<g mask="url(#mask0_137_1685)">
<path d="M14 27.8308C12.5504 27.5677 11.2132 27.081 9.98833 26.3708C8.76367 25.6603 7.70644 24.7833 6.81667 23.7398C5.92689 22.6962 5.235 21.5147 4.741 20.1951C4.247 18.8753 4 17.477 4 16.0001C4 14.0805 4.41411 12.2951 5.24233 10.6438C6.07056 8.99243 7.31289 7.5471 8.96933 6.30777H5V4.97443H11.3333V11.3078H10V7.21277C8.436 8.29321 7.26722 9.5971 6.49367 11.1244C5.72011 12.6518 5.33333 14.277 5.33333 16.0001C5.33333 18.5454 6.12944 20.7954 7.72167 22.7501C9.31411 24.7048 11.4069 25.9428 14 26.4641V27.8308ZM14.1 21.2104L9.38967 16.4924L10.3333 15.5488L14.1 19.3154L21.6667 11.7488L22.6103 12.7001L14.1 21.2104ZM20.6667 27.0514V20.7181H22V24.8128C23.5471 23.7103 24.7117 22.3967 25.4937 20.8718C26.2757 19.3471 26.6667 17.7232 26.6667 16.0001C26.6667 13.4548 25.8706 11.2048 24.2783 9.2501C22.6859 7.29543 20.5931 6.05743 18 5.5361V4.16943C20.9162 4.69077 23.312 6.04888 25.1873 8.24377C27.0624 10.4387 28 13.0241 28 16.0001C28 17.9197 27.5859 19.7094 26.7577 21.3694C25.9294 23.0292 24.6871 24.4788 23.0307 25.7181H27V27.0514H20.6667Z" fill="#616161"/>
</g>
</svg>
