<svg width="32" height="32" viewBox="0 0 32 32" fill="none" xmlns="http://www.w3.org/2000/svg">
<mask id="mask0_926_9" style="mask-type:alpha" maskUnits="userSpaceOnUse" x="0" y="0" width="32" height="32">
<rect width="32" height="32" fill="#D9D9D9"/>
</mask>
<g mask="url(#mask0_926_9)">
<path d="M11.324 27.0553C9.86333 26.4256 8.59267 25.5709 7.512 24.4913C6.43133 23.4118 5.57589 22.1422 4.94567 20.6827C4.31522 19.2233 4 17.6639 4 16.0043C4 14.345 4.31489 12.7849 4.94467 11.324C5.57444 9.86333 6.42911 8.59267 7.50867 7.512C8.58822 6.43133 9.85778 5.57589 11.3173 4.94567C12.7767 4.31522 14.3361 4 15.9957 4C17.655 4 19.2151 4.31489 20.676 4.94467C22.1367 5.57445 23.4073 6.42911 24.488 7.50867C25.5687 8.58822 26.4241 9.85778 27.0543 11.3173C27.6848 12.7767 28 14.3361 28 15.9957C28 17.655 27.6851 19.2151 27.0553 20.676C26.4256 22.1367 25.5709 23.4073 24.4913 24.488C23.4118 25.5687 22.1422 26.4241 20.6827 27.0543C19.2233 27.6848 17.6639 28 16.0043 28C14.345 28 12.7849 27.6851 11.324 27.0553ZM14.6667 26.6V24C13.9333 24 13.3056 23.7389 12.7833 23.2167C12.2611 22.6944 12 22.0667 12 21.3333V20L5.6 13.6C5.53333 14 5.47222 14.4 5.41667 14.8C5.36111 15.2 5.33333 15.6 5.33333 16C5.33333 18.6889 6.21667 21.0444 7.98333 23.0667C9.75 25.0889 11.9778 26.2667 14.6667 26.6ZM23.8667 23.2C24.7778 22.2 25.4722 21.0833 25.95 19.85C26.4278 18.6167 26.6667 17.3301 26.6667 15.9903C26.6667 13.8021 26.0653 11.8037 24.8627 9.995C23.6602 8.18633 22.0393 6.882 20 6.082V6.66667C20 7.4 19.7389 8.02778 19.2167 8.55C18.6944 9.07222 18.0667 9.33333 17.3333 9.33333H14.6667V12C14.6667 12.3778 14.5389 12.6944 14.2833 12.95C14.0278 13.2056 13.7111 13.3333 13.3333 13.3333H10.6667V16H18.6667C19.0444 16 19.3611 16.1278 19.6167 16.3833C19.8722 16.6389 20 16.9556 20 17.3333V21.3333H21.3333C21.9111 21.3333 22.4333 21.5056 22.9 21.85C23.3667 22.1944 23.6889 22.6444 23.8667 23.2Z" fill="#616161"/>
</g>
</svg>
