<svg width="32" height="32" viewBox="0 0 32 32" fill="none" xmlns="http://www.w3.org/2000/svg">
<mask id="mask0_152_716" style="mask-type:alpha" maskUnits="userSpaceOnUse" x="0" y="0" width="32" height="32">
<rect width="32" height="32" fill="#D9D9D9"/>
</mask>
<g mask="url(#mask0_152_716)">
<path d="M15.9952 28C13.3298 28 11.1087 27.0829 9.33184 25.2487C7.55495 23.4147 6.6665 21.1318 6.6665 18.4H7.99984C7.99984 20.7778 8.75539 22.75 10.2665 24.3167C11.7776 25.8834 13.6887 26.6667 15.9998 26.6667C18.3109 26.6667 20.2221 25.8834 21.7332 24.3167C23.2443 22.75 23.9998 20.7778 23.9998 18.4H25.3332C25.3332 21.1351 24.4432 23.4189 22.6632 25.2514C20.8829 27.0838 18.6603 28 15.9952 28ZM7.69217 16.4617C7.41684 16.4617 7.17706 16.3595 6.97284 16.155C6.76862 15.9508 6.6665 15.7111 6.6665 15.436C6.6665 15.1607 6.76862 14.9209 6.97284 14.7167C7.17706 14.5125 7.41684 14.4104 7.69217 14.4104C7.96728 14.4104 8.20706 14.5125 8.4115 14.7167C8.61573 14.9209 8.71784 15.1607 8.71784 15.436C8.71784 15.7111 8.61573 15.9508 8.4115 16.155C8.20706 16.3595 7.96728 16.4617 7.69217 16.4617ZM13.1792 16.4617C12.9041 16.4617 12.6644 16.3595 12.4602 16.155C12.2559 15.9508 12.1538 15.7111 12.1538 15.436C12.1538 15.1607 12.2559 14.9209 12.4602 14.7167C12.6644 14.5125 12.9041 14.4104 13.1792 14.4104C13.4545 14.4104 13.6943 14.5125 13.8985 14.7167C14.1027 14.9209 14.2048 15.1607 14.2048 15.436C14.2048 15.7111 14.1027 15.9508 13.8985 16.155C13.6943 16.3595 13.4545 16.4617 13.1792 16.4617ZM18.8205 16.4617C18.5452 16.4617 18.3054 16.3595 18.1012 16.155C17.8969 15.9508 17.7948 15.7111 17.7948 15.436C17.7948 15.1607 17.8969 14.9209 18.1012 14.7167C18.3054 14.5125 18.5452 14.4104 18.8205 14.4104C19.0956 14.4104 19.3353 14.5125 19.5395 14.7167C19.7437 14.9209 19.8458 15.1607 19.8458 15.436C19.8458 15.7111 19.7437 15.9508 19.5395 16.155C19.3353 16.3595 19.0956 16.4617 18.8205 16.4617ZM24.3075 16.4617C24.0324 16.4617 23.7926 16.3595 23.5882 16.155C23.3839 15.9508 23.2818 15.7111 23.2818 15.436C23.2818 15.1607 23.3839 14.9209 23.5882 14.7167C23.7926 14.5125 24.0324 14.4104 24.3075 14.4104C24.5828 14.4104 24.8226 14.5125 25.0268 14.7167C25.2311 14.9209 25.3332 15.1607 25.3332 15.436C25.3332 15.7111 25.2311 15.9508 25.0268 16.155C24.8226 16.3595 24.5828 16.4617 24.3075 16.4617ZM10.4358 13.0514C10.1605 13.0514 9.92073 12.9493 9.7165 12.745C9.51228 12.5406 9.41017 12.3008 9.41017 12.0257C9.41017 11.7504 9.51228 11.5106 9.7165 11.3064C9.92073 11.1021 10.1605 11 10.4358 11C10.7109 11 10.9506 11.1021 11.1548 11.3064C11.3593 11.5106 11.4615 11.7504 11.4615 12.0257C11.4615 12.3008 11.3593 12.5406 11.1548 12.745C10.9506 12.9493 10.7109 13.0514 10.4358 13.0514ZM21.5638 13.0514C21.2887 13.0514 21.0491 12.9493 20.8448 12.745C20.6404 12.5406 20.5382 12.3008 20.5382 12.0257C20.5382 11.7504 20.6404 11.5106 20.8448 11.3064C21.0491 11.1021 21.2887 11 21.5638 11C21.8392 11 22.0789 11.1021 22.2832 11.3064C22.4874 11.5106 22.5895 11.7504 22.5895 12.0257C22.5895 12.3008 22.4874 12.5406 22.2832 12.745C22.0789 12.9493 21.8392 13.0514 21.5638 13.0514ZM15.9998 12.9744C15.7247 12.9744 15.4849 12.8723 15.2805 12.668C15.0763 12.4638 14.9742 12.224 14.9742 11.9487C14.9742 11.6736 15.0763 11.4338 15.2805 11.2294C15.4849 11.0251 15.7247 10.923 15.9998 10.923C16.2749 10.923 16.5147 11.0251 16.7192 11.2294C16.9234 11.4338 17.0255 11.6736 17.0255 11.9487C17.0255 12.224 16.9234 12.4638 16.7192 12.668C16.5147 12.8723 16.2749 12.9744 15.9998 12.9744ZM13.1792 9.64103C12.9041 9.64103 12.6644 9.53892 12.4602 9.33469C12.2559 9.13047 12.1538 8.8907 12.1538 8.61536C12.1538 8.34025 12.2559 8.10047 12.4602 7.89603C12.6644 7.69181 12.9041 7.5897 13.1792 7.5897C13.4545 7.5897 13.6943 7.69181 13.8985 7.89603C14.1027 8.10047 14.2048 8.34025 14.2048 8.61536C14.2048 8.8907 14.1027 9.13047 13.8985 9.33469C13.6943 9.53892 13.4545 9.64103 13.1792 9.64103ZM18.8205 9.64103C18.5452 9.64103 18.3054 9.53892 18.1012 9.33469C17.8969 9.13047 17.7948 8.8907 17.7948 8.61536C17.7948 8.34025 17.8969 8.10047 18.1012 7.89603C18.3054 7.69181 18.5452 7.5897 18.8205 7.5897C19.0956 7.5897 19.3353 7.69181 19.5395 7.89603C19.7437 8.10047 19.8458 8.34025 19.8458 8.61536C19.8458 8.8907 19.7437 9.13047 19.5395 9.33469C19.3353 9.53892 19.0956 9.64103 18.8205 9.64103ZM15.9998 6.56403C15.7247 6.56403 15.4849 6.46192 15.2805 6.25769C15.0763 6.05347 14.9742 5.8137 14.9742 5.53836C14.9742 5.26325 15.0763 5.02358 15.2805 4.81936C15.4849 4.61492 15.7247 4.5127 15.9998 4.5127C16.2749 4.5127 16.5147 4.61492 16.7192 4.81936C16.9234 5.02358 17.0255 5.26325 17.0255 5.53836C17.0255 5.8137 16.9234 6.05347 16.7192 6.25769C16.5147 6.46192 16.2749 6.56403 15.9998 6.56403Z" fill="#616161"/>
</g>
</svg>
