<svg width="32" height="32" viewBox="0 0 32 32" fill="none" xmlns="http://www.w3.org/2000/svg">
<mask id="mask0_31_503" style="mask-type:alpha" maskUnits="userSpaceOnUse" x="0" y="0" width="32" height="32">
<rect width="32" height="32" fill="#D9D9D9"/>
</mask>
<g mask="url(#mask0_31_503)">
<path d="M6.66674 26.6666C6.09918 26.6666 5.69574 26.4131 5.4564 25.9063C5.21707 25.3994 5.27351 24.9264 5.62574 24.4873L13.3334 15.1283V6.66659H11.4874C11.2985 6.66659 11.1402 6.60258 11.0124 6.47459C10.8846 6.34659 10.8207 6.18803 10.8207 5.99892C10.8207 5.80981 10.8846 5.65158 11.0124 5.52425C11.1402 5.39692 11.2985 5.33325 11.4874 5.33325H20.5127C20.7016 5.33325 20.86 5.39725 20.9877 5.52525C21.1155 5.65325 21.1794 5.81181 21.1794 6.00092C21.1794 6.19003 21.1155 6.34825 20.9877 6.47559C20.86 6.60292 20.7016 6.66659 20.5127 6.66659H18.6667V15.1283L26.3744 24.4873C26.7266 24.9264 26.7831 25.3994 26.5437 25.9063C26.3044 26.4131 25.901 26.6666 25.3334 26.6666H6.66674ZM6.66674 25.3333H25.3334L17.3334 15.5999V6.66659H14.6667V15.5999L6.66674 25.3333Z" fill="white"/>
</g>
</svg>
