<svg width="32" height="32" viewBox="0 0 32 32" fill="none" xmlns="http://www.w3.org/2000/svg">
<mask id="mask0_863_304" style="mask-type:alpha" maskUnits="userSpaceOnUse" x="0" y="0" width="32" height="32">
<rect width="32" height="32" fill="#D9D9D9"/>
</mask>
<g mask="url(#mask0_863_304)">
<path d="M6.6668 26.6668C6.09924 26.6668 5.6958 26.4134 5.45646 25.9065C5.21713 25.3996 5.27357 24.9266 5.6258 24.4875L13.3335 15.1285V6.66683H11.4875C11.2986 6.66683 11.1402 6.60283 11.0125 6.47483C10.8847 6.34683 10.8208 6.18827 10.8208 5.99916C10.8208 5.81005 10.8847 5.65183 11.0125 5.5245C11.1402 5.39716 11.2986 5.3335 11.4875 5.3335H20.5128C20.7017 5.3335 20.86 5.3975 20.9878 5.5255C21.1156 5.6535 21.1795 5.81205 21.1795 6.00116C21.1795 6.19027 21.1156 6.3485 20.9878 6.47583C20.86 6.60316 20.7017 6.66683 20.5128 6.66683H18.6668V15.1285L26.3745 24.4875C26.7267 24.9266 26.7831 25.3996 26.5438 25.9065C26.3045 26.4134 25.901 26.6668 25.3335 26.6668H6.6668ZM6.6668 25.3335H25.3335L17.3335 15.6002V6.66683H14.6668V15.6002L6.6668 25.3335Z" fill="#616161"/>
</g>
</svg>
