<svg width="32" height="32" viewBox="0 0 32 32" fill="none" xmlns="http://www.w3.org/2000/svg">
<mask id="mask0_165_5354" style="mask-type:alpha" maskUnits="userSpaceOnUse" x="0" y="0" width="32" height="32">
<rect width="32" height="32" fill="#D9D9D9"/>
</mask>
<g mask="url(#mask0_165_5354)">
<path d="M16 28.6411C13.1162 27.8547 10.7287 26.1572 8.83733 23.5488C6.94578 20.9403 6 18.0241 6 14.8001V7.12843L16 3.38477L26 7.12843V14.8001C26 18.0241 25.0542 20.9403 23.1627 23.5488C21.2713 26.1572 18.8838 27.8547 16 28.6411ZM16 26.5334C18.3111 25.8001 20.2222 24.3334 21.7333 22.1334C23.2444 19.9334 24 17.489 24 14.8001V8.5001L16 5.51277L8 8.5001V14.8001C8 17.489 8.75556 19.9334 10.2667 22.1334C11.7778 24.3334 13.6889 25.8001 16 26.5334Z" fill="#F5F5F7"/>
</g>
</svg>
