<svg width="32" height="32" viewBox="0 0 32 32" fill="none" xmlns="http://www.w3.org/2000/svg">
<mask id="mask0_152_851" style="mask-type:alpha" maskUnits="userSpaceOnUse" x="0" y="0" width="32" height="32">
<rect width="32" height="32" fill="#D9D9D9"/>
</mask>
<g mask="url(#mask0_152_851)">
<path d="M8.00331 19.769C7.7102 19.769 7.45253 19.6582 7.23031 19.4366C7.00808 19.2153 6.89697 18.9571 6.89697 18.662C6.89697 18.352 7.00775 18.0914 7.22931 17.8803C7.45064 17.6692 7.70886 17.5636 8.00397 17.5636C8.31397 17.5636 8.57453 17.6699 8.78564 17.8823C8.99675 18.0948 9.10231 18.3549 9.10231 18.6626C9.10231 18.9558 8.99608 19.2134 8.78364 19.4356C8.57119 19.6579 8.31108 19.769 8.00331 19.769ZM8.00331 9.10231C7.7102 9.10231 7.45253 8.99153 7.23031 8.76997C7.00808 8.54864 6.89697 8.29042 6.89697 7.99531C6.89697 7.68531 7.00775 7.42475 7.22931 7.21364C7.45064 7.00253 7.70886 6.89697 8.00397 6.89697C8.31397 6.89697 8.57453 7.00319 8.78564 7.21564C8.99675 7.42808 9.10231 7.6882 9.10231 7.99597C9.10231 8.28908 8.99608 8.54675 8.78364 8.76897C8.57119 8.9912 8.31108 9.10231 8.00331 9.10231ZM12.0033 25.1023C11.7102 25.1023 11.4525 24.9915 11.2303 24.77C11.0081 24.5486 10.897 24.2904 10.897 23.9953C10.897 23.6853 11.0078 23.4248 11.2293 23.2136C11.4506 23.0025 11.7089 22.897 12.004 22.897C12.314 22.897 12.5745 23.0032 12.7856 23.2156C12.9968 23.4281 13.1023 23.6882 13.1023 23.996C13.1023 24.2891 12.9961 24.5468 12.7836 24.769C12.5712 24.9912 12.3111 25.1023 12.0033 25.1023ZM12.0033 14.4356C11.7102 14.4356 11.4525 14.3249 11.2303 14.1033C11.0081 13.882 10.897 13.6238 10.897 13.3286C10.897 13.0186 11.0078 12.7581 11.2293 12.547C11.4506 12.3359 11.7089 12.2303 12.004 12.2303C12.314 12.2303 12.5745 12.3365 12.7856 12.549C12.9968 12.7614 13.1023 13.0215 13.1023 13.3293C13.1023 13.6224 12.9961 13.8801 12.7836 14.1023C12.5712 14.3245 12.3111 14.4356 12.0033 14.4356ZM16.0033 19.769C15.7102 19.769 15.4525 19.6582 15.2303 19.4366C15.0081 19.2153 14.897 18.9571 14.897 18.662C14.897 18.352 15.0078 18.0914 15.2293 17.8803C15.4506 17.6692 15.7089 17.5636 16.004 17.5636C16.314 17.5636 16.5745 17.6699 16.7856 17.8823C16.9967 18.0948 17.1023 18.3549 17.1023 18.6626C17.1023 18.9558 16.9961 19.2134 16.7836 19.4356C16.5712 19.6579 16.3111 19.769 16.0033 19.769ZM16.0033 9.10231C15.7102 9.10231 15.4525 8.99153 15.2303 8.76997C15.0081 8.54864 14.897 8.29042 14.897 7.99531C14.897 7.68531 15.0078 7.42475 15.2293 7.21364C15.4506 7.00253 15.7089 6.89697 16.004 6.89697C16.314 6.89697 16.5745 7.00319 16.7856 7.21564C16.9967 7.42808 17.1023 7.6882 17.1023 7.99597C17.1023 8.28908 16.9961 8.54675 16.7836 8.76897C16.5712 8.9912 16.3111 9.10231 16.0033 9.10231ZM20.0033 25.1023C19.7102 25.1023 19.4525 24.9915 19.2303 24.77C19.0081 24.5486 18.897 24.2904 18.897 23.9953C18.897 23.6853 19.0078 23.4248 19.2293 23.2136C19.4506 23.0025 19.7089 22.897 20.004 22.897C20.314 22.897 20.5745 23.0032 20.7856 23.2156C20.9968 23.4281 21.1023 23.6882 21.1023 23.996C21.1023 24.2891 20.9961 24.5468 20.7836 24.769C20.5712 24.9912 20.3111 25.1023 20.0033 25.1023ZM20.0033 14.4356C19.7102 14.4356 19.4525 14.3249 19.2303 14.1033C19.0081 13.882 18.897 13.6238 18.897 13.3286C18.897 13.0186 19.0078 12.7581 19.2293 12.547C19.4506 12.3359 19.7089 12.2303 20.004 12.2303C20.314 12.2303 20.5745 12.3365 20.7856 12.549C20.9968 12.7614 21.1023 13.0215 21.1023 13.3293C21.1023 13.6224 20.9961 13.8801 20.7836 14.1023C20.5712 14.3245 20.3111 14.4356 20.0033 14.4356ZM24.0033 19.769C23.7102 19.769 23.4525 19.6582 23.2303 19.4366C23.0081 19.2153 22.897 18.9571 22.897 18.662C22.897 18.352 23.0078 18.0914 23.2293 17.8803C23.4506 17.6692 23.7089 17.5636 24.004 17.5636C24.314 17.5636 24.5745 17.6699 24.7856 17.8823C24.9968 18.0948 25.1023 18.3549 25.1023 18.6626C25.1023 18.9558 24.9961 19.2134 24.7836 19.4356C24.5712 19.6579 24.3111 19.769 24.0033 19.769ZM24.0033 9.10231C23.7102 9.10231 23.4525 8.99153 23.2303 8.76997C23.0081 8.54864 22.897 8.29042 22.897 7.99531C22.897 7.68531 23.0078 7.42475 23.2293 7.21364C23.4506 7.00253 23.7089 6.89697 24.004 6.89697C24.314 6.89697 24.5745 7.00319 24.7856 7.21564C24.9968 7.42808 25.1023 7.6882 25.1023 7.99597C25.1023 8.28908 24.9961 8.54675 24.7836 8.76897C24.5712 8.9912 24.3111 9.10231 24.0033 9.10231Z" fill="#616161"/>
</g>
</svg>
