<svg width="32" height="32" viewBox="0 0 32 32" fill="none" xmlns="http://www.w3.org/2000/svg">
<mask id="mask0_152_699" style="mask-type:alpha" maskUnits="userSpaceOnUse" x="0" y="0" width="32" height="32">
<rect width="32" height="32" fill="#D9D9D9"/>
</mask>
<g mask="url(#mask0_152_699)">
<path d="M16.008 20.6667C17.3071 20.6667 18.7109 20.4517 20.2193 20.0217C21.7278 19.5919 23.7922 18.8052 26.4127 17.6617C26.5084 17.2974 26.5748 16.9346 26.6117 16.573C26.6483 16.2114 26.6667 15.8316 26.6667 15.4333C26.6667 15.1889 26.5722 14.9889 26.3833 14.8333C26.1944 14.6778 25.9778 14.6333 25.7333 14.7C25.4222 14.8111 25.0778 14.9278 24.7 15.05C24.3222 15.1722 23.8444 15.3556 23.2667 15.6C21.7333 16.2444 20.4222 16.6944 19.3333 16.95C18.2444 17.2056 17.1333 17.3333 16 17.3333C14.8444 17.3333 13.7111 17.2 12.6 16.9333C11.4889 16.6667 10.1333 16.2111 8.53333 15.5667C7.95556 15.3222 7.51111 15.1444 7.2 15.0333L6.26667 14.7C6.02222 14.6111 5.80556 14.65 5.61667 14.8167C5.42778 14.9833 5.33333 15.1889 5.33333 15.4333C5.33333 15.8316 5.35167 16.2158 5.38833 16.586C5.42522 16.956 5.49156 17.3231 5.58733 17.6873C7.78044 18.7027 9.74067 19.453 11.468 19.9383C13.1953 20.4239 14.7087 20.6667 16.008 20.6667ZM15.9887 25.3333C18.2731 25.3333 20.282 24.788 22.0153 23.6973C23.7487 22.6069 25.0197 21.1668 25.8283 19.377C23.7359 20.2846 21.9156 20.9487 20.3673 21.3693C18.8191 21.7898 17.3633 22 16 22C14.6598 22 13.1667 21.7842 11.5207 21.3527C9.87444 20.9209 8.08889 20.2734 6.164 19.4103C6.95044 21.2172 8.20733 22.6561 9.93467 23.727C11.662 24.7979 13.68 25.3333 15.9887 25.3333ZM16 13.3333C14.7042 13.3333 13.6026 12.8794 12.695 11.9717C11.7872 11.0641 11.3333 9.96244 11.3333 8.66667C11.3333 7.37089 11.7872 6.26922 12.695 5.36167C13.6026 4.45389 14.7042 4 16 4C17.2958 4 18.3974 4.45389 19.305 5.36167C20.2128 6.26922 20.6667 7.37089 20.6667 8.66667C20.6667 9.96244 20.2128 11.0641 19.305 11.9717C18.3974 12.8794 17.2958 13.3333 16 13.3333ZM16.005 12C16.923 12 17.7072 11.6731 18.3577 11.0193C19.0081 10.3656 19.3333 9.57967 19.3333 8.66167C19.3333 7.74367 19.0064 6.95944 18.3527 6.309C17.6989 5.65856 16.913 5.33333 15.995 5.33333C15.077 5.33333 14.2928 5.66022 13.6423 6.314C12.9919 6.96778 12.6667 7.75367 12.6667 8.67167C12.6667 9.58967 12.9936 10.3739 13.6473 11.0243C14.3011 11.6748 15.087 12 16.005 12ZM15.9977 26.6667C12.4932 26.6667 9.61756 25.6282 7.37067 23.5513C5.12356 21.4744 4 18.7684 4 15.4333C4 14.7222 4.27733 14.1547 4.832 13.7307C5.38667 13.3069 5.99478 13.2043 6.65633 13.423C6.99744 13.531 7.35444 13.6553 7.72733 13.796C8.10022 13.9364 8.54244 14.1147 9.054 14.3307C10.5958 14.9598 11.8696 15.3953 12.8753 15.6373C13.8809 15.8791 14.9224 16 16 16C17.0411 16 18.0582 15.8847 19.0513 15.654C20.0444 15.4231 21.2787 15.0017 22.754 14.3897C23.3642 14.1452 23.8638 13.9496 24.2527 13.8027C24.6416 13.6556 25.0078 13.5264 25.3513 13.4153C26.0129 13.2069 26.6197 13.3189 27.1717 13.7513C27.7239 14.1838 28 14.7444 28 15.4333C28 17.018 27.6854 18.4902 27.0563 19.85C26.4272 21.2098 25.5726 22.3966 24.4923 23.4103C23.4119 24.4239 22.1418 25.22 20.682 25.7987C19.2222 26.3773 17.6608 26.6667 15.9977 26.6667Z" fill="#616161"/>
</g>
</svg>
