<svg width="32" height="32" viewBox="0 0 32 32" fill="none" xmlns="http://www.w3.org/2000/svg">
<mask id="mask0_137_1679" style="mask-type:alpha" maskUnits="userSpaceOnUse" x="0" y="0" width="32" height="32">
<rect width="32" height="32" fill="#D9D9D9"/>
</mask>
<g mask="url(#mask0_137_1679)">
<path d="M14.5998 22.4873L21.2102 15.877L20.2512 14.918L14.5922 20.577L11.7408 17.7257L10.7895 18.677L14.5998 22.4873ZM8.8205 28C8.20673 28 7.69428 27.7944 7.28317 27.3833C6.87206 26.9722 6.6665 26.4598 6.6665 25.846V6.154C6.6665 5.54022 6.87206 5.02778 7.28317 4.61667C7.69428 4.20556 8.20673 4 8.8205 4H19.3332L25.3332 10V25.846C25.3332 26.4598 25.1276 26.9722 24.7165 27.3833C24.3054 27.7944 23.7929 28 23.1792 28H8.8205ZM18.6665 10.6667V5.33333H8.8205C8.61517 5.33333 8.42706 5.41878 8.25617 5.58967C8.08528 5.76056 7.99984 5.94867 7.99984 6.154V25.846C7.99984 26.0513 8.08528 26.2394 8.25617 26.4103C8.42706 26.5812 8.61517 26.6667 8.8205 26.6667H23.1792C23.3845 26.6667 23.5726 26.5812 23.7435 26.4103C23.9144 26.2394 23.9998 26.0513 23.9998 25.846V10.6667H18.6665Z" fill="#616161"/>
</g>
</svg>
