<svg width="32" height="32" viewBox="0 0 32 32" fill="none" xmlns="http://www.w3.org/2000/svg">
<mask id="mask0_137_1674" style="mask-type:alpha" maskUnits="userSpaceOnUse" x="0" y="0" width="32" height="32">
<rect width="32" height="32" fill="#D9D9D9"/>
</mask>
<g mask="url(#mask0_137_1674)">
<path d="M12.0312 28.3082L9.80557 24.5545L5.56991 23.6415L5.98524 19.2722L3.12891 16.0005L5.98524 12.7289L5.56991 8.35954L9.80557 7.44654L12.0312 3.69287L16.0006 5.36987L19.9699 3.69287L22.1956 7.44654L26.4312 8.35954L26.0159 12.7289L28.8722 16.0005L26.0159 19.2722L26.4312 23.6415L22.1956 24.5545L19.9699 28.3082L16.0006 26.6312L12.0312 28.3082ZM12.6006 26.6005L16.0006 25.1852L19.4159 26.6005L21.3339 23.4005L25.0006 22.5852L24.6672 18.8005L27.1339 16.0005L24.6672 13.1852L25.0006 9.40054L21.3339 8.60054L19.4006 5.40054L16.0006 6.81587L12.5852 5.40054L10.6672 8.60054L7.00057 9.40054L7.33391 13.1852L4.86724 16.0005L7.33391 18.8005L7.00057 22.6005L10.6672 23.4005L12.6006 26.6005ZM14.6006 19.8109L21.2109 13.2005L20.2672 12.2415L14.6006 17.9082L11.7339 15.0569L10.7902 16.0005L14.6006 19.8109Z" fill="#616161"/>
</g>
</svg>
