<svg width="32" height="32" viewBox="0 0 32 32" fill="none" xmlns="http://www.w3.org/2000/svg">
<mask id="mask0_30_188" style="mask-type:alpha" maskUnits="userSpaceOnUse" x="0" y="0" width="32" height="32">
<rect width="32" height="32" fill="#D9D9D9"/>
</mask>
<g mask="url(#mask0_30_188)">
<path d="M12.5665 24.3334C12.3303 24.3334 12.1183 24.2619 11.9305 24.1188C11.7428 23.9754 11.6051 23.7931 11.5175 23.5718L8.75853 16.6668H2.71753V15.3334H9.7022L12.5635 22.5951L18.3892 8.40278C18.4763 8.18145 18.613 7.99911 18.7992 7.85578C18.9854 7.71267 19.1965 7.64111 19.4325 7.64111C19.6688 7.64111 19.8808 7.71267 20.0685 7.85578C20.2563 7.99911 20.394 8.18145 20.4815 8.40278L23.2919 15.3334H29.3329V16.6668H22.3482L19.4355 9.37945L13.6099 23.5718C13.5228 23.7931 13.3861 23.9754 13.1999 24.1188C13.0136 24.2619 12.8025 24.3334 12.5665 24.3334Z" fill="#616161"/>
</g>
</svg>
