<svg width="32" height="32" viewBox="0 0 32 32" fill="none" xmlns="http://www.w3.org/2000/svg">
<mask id="mask0_823_153" style="mask-type:alpha" maskUnits="userSpaceOnUse" x="0" y="0" width="32" height="32">
<rect width="32" height="32" fill="#D9D9D9"/>
</mask>
<g mask="url(#mask0_823_153)">
<path d="M11.9317 24.1188C11.744 23.9754 11.6063 23.7931 11.5188 23.5718L8.75975 16.6668H2.71875V15.3334H9.70342L12.5648 22.5951L18.3904 8.40278C18.4775 8.18145 18.6142 7.99911 18.8004 7.85578C18.9866 7.71267 19.1978 7.64111 19.4338 7.64111C19.67 7.64111 19.882 7.71267 20.0698 7.85578C20.2575 7.99911 20.3952 8.18145 20.4828 8.40278L23.2931 15.3334H29.3341V16.6668H22.3494L19.4368 9.37945L13.6111 23.5718C13.524 23.7931 13.3873 23.9754 13.2011 24.1188C13.0149 24.2619 12.8038 24.3334 12.5678 24.3334C12.3315 24.3334 12.1195 24.2619 11.9317 24.1188Z" fill="#0080C7"/>
</g>
</svg>
