<svg width="32" height="32" viewBox="0 0 32 32" fill="none" xmlns="http://www.w3.org/2000/svg">
<mask id="mask0_152_856" style="mask-type:alpha" maskUnits="userSpaceOnUse" x="0" y="0" width="32" height="32">
<rect width="32" height="32" fill="#D9D9D9"/>
</mask>
<g mask="url(#mask0_152_856)">
<path d="M20.0541 14.0003H13.2795C13.2197 14.4036 13.0907 14.7844 12.8925 15.1426C12.6942 15.5006 12.4412 15.8198 12.1335 16.1003L13.0231 25.9233C13.0574 26.1284 13.1471 26.3036 13.2925 26.4489C13.4378 26.5943 13.6216 26.6669 13.8438 26.6669H19.4898C19.712 26.6669 19.8958 26.5943 20.0411 26.4489C20.1865 26.3036 20.2762 26.1284 20.3105 25.9233L21.2001 16.1003C20.8924 15.8147 20.6393 15.4942 20.4411 15.1386C20.2429 14.783 20.1139 14.4036 20.0541 14.0003ZM12.7335 9.3336L12.3668 10.8003C12.5908 11.0807 12.7852 11.3765 12.9501 11.6876C13.115 11.9987 13.2248 12.3252 13.2795 12.6669H20.0541C20.1088 12.3252 20.2144 11.9944 20.3708 11.6746C20.527 11.355 20.7257 11.0636 20.9668 10.8003L20.6001 9.3336H12.7335ZM13.8348 28.0003C13.2886 28.0003 12.808 27.8163 12.3931 27.4483C11.9785 27.0803 11.744 26.6182 11.6898 26.0619L10.7591 15.9643C10.7369 15.7992 10.763 15.6464 10.8375 15.5059C10.9117 15.3655 11.0146 15.2397 11.1461 15.1286C11.4095 14.8977 11.6121 14.6276 11.7541 14.3183C11.8959 14.0089 11.9668 13.6846 11.9668 13.3453C11.9668 13.0402 11.9138 12.7444 11.8078 12.4579C11.7018 12.1717 11.5428 11.9217 11.3308 11.7079C11.1941 11.5968 11.0959 11.4588 11.0361 11.2939C10.9761 11.1288 10.971 10.9668 11.0208 10.8079L11.5028 8.82093C11.5523 8.57804 11.6785 8.38059 11.8811 8.22859C12.0838 8.07637 12.314 8.00026 12.5718 8.00026H16.0001V6.05159H14.0001V4.71826H19.3335V6.05159H17.3335V8.00026H20.7618C21.0162 8.00026 21.2388 8.07315 21.4295 8.21893C21.6204 8.36493 21.743 8.5656 21.7975 8.82093L22.2875 10.7566C22.337 10.9157 22.3318 11.0777 22.2718 11.2426C22.212 11.4075 22.1138 11.5455 21.9771 11.6566C21.7651 11.8653 21.6048 12.1115 21.4961 12.3953C21.3877 12.679 21.3335 12.9721 21.3335 13.2746C21.3335 13.6217 21.4031 13.9512 21.5425 14.2629C21.6818 14.5749 21.8771 14.8464 22.1285 15.0773C22.26 15.1884 22.3642 15.3142 22.4411 15.4546C22.518 15.595 22.5454 15.7478 22.5231 15.9129L21.6438 26.0286C21.5898 26.5868 21.3565 27.0549 20.9438 27.4329C20.5309 27.8112 20.0462 28.0003 19.4898 28.0003H13.8348Z" fill="#616161"/>
</g>
</svg>
