<svg width="32" height="32" viewBox="0 0 32 32" fill="none" xmlns="http://www.w3.org/2000/svg">
<mask id="mask0_28_2586" style="mask-type:alpha" maskUnits="userSpaceOnUse" x="0" y="0" width="32" height="32">
<rect width="32" height="32" fill="#D9D9D9"/>
</mask>
<g mask="url(#mask0_28_2586)">
<path d="M15.3333 23.3334H15.641L19.564 16.4104H16.6667V11.3334H16.359L12.436 18.2564H15.3333V23.3334ZM15.9953 28.0001C13.33 28.0001 11.1089 27.083 9.33199 25.2487C7.5551 23.4147 6.66666 21.1318 6.66666 18.4001C6.66666 16.4856 7.43888 14.3681 8.98332 12.0474C10.5278 9.72696 12.8667 7.18129 16 4.4104C19.1333 7.18129 21.4722 9.72696 23.0167 12.0474C24.5611 14.3681 25.3333 16.4856 25.3333 18.4001C25.3333 21.1318 24.4433 23.4147 22.6633 25.2487C20.8831 27.083 18.6604 28.0001 15.9953 28.0001ZM16 26.6667C18.3111 26.6667 20.2222 25.8834 21.7333 24.3167C23.2444 22.7501 24 20.7778 24 18.4001C24 16.7778 23.3278 14.9445 21.9833 12.9001C20.6389 10.8556 18.6444 8.62229 16 6.20007C13.3555 8.62229 11.3611 10.8556 10.0167 12.9001C8.67221 14.9445 7.99999 16.7778 7.99999 18.4001C7.99999 20.7778 8.75555 22.7501 10.2667 24.3167C11.7778 25.8834 13.6889 26.6667 16 26.6667Z" fill="#616161"/>
</g>
</svg>
