<svg width="32" height="32" viewBox="0 0 32 32" fill="none" xmlns="http://www.w3.org/2000/svg">
<mask id="mask0_137_1551" style="mask-type:alpha" maskUnits="userSpaceOnUse" x="0" y="0" width="32" height="32">
<rect width="32" height="32" fill="#D9D9D9"/>
</mask>
<g mask="url(#mask0_137_1551)">
<path d="M14.5993 16.8L20.2763 11.123L19.3249 10.1717L14.5993 14.8973L12.7326 13.0307L11.7813 13.982L14.5993 16.8ZM15.9993 26.236C18.5053 24.0547 20.4865 21.8362 21.9429 19.5807C23.3994 17.3251 24.1276 15.3743 24.1276 13.7283C24.1276 11.289 23.3554 9.27567 21.8109 7.68833C20.2665 6.10122 18.3293 5.30767 15.9993 5.30767C13.6693 5.30767 11.732 6.10122 10.1876 7.68833C8.64315 9.27567 7.87093 11.289 7.87093 13.7283C7.87093 15.3743 8.59915 17.3251 10.0556 19.5807C11.512 21.8362 13.4933 24.0547 15.9993 26.236ZM15.9993 28.0257C12.8659 25.2548 10.5057 22.6706 8.9186 20.273C7.33126 17.8757 6.5376 15.6941 6.5376 13.7283C6.5376 10.9077 7.45604 8.58111 9.29293 6.74867C11.1296 4.91622 13.365 4 15.9993 4C18.6335 4 20.8689 4.91622 22.7056 6.74867C24.5425 8.58111 25.4609 10.9077 25.4609 13.7283C25.4609 15.6941 24.6673 17.8757 23.0799 20.273C21.4928 22.6706 19.1326 25.2548 15.9993 28.0257Z" fill="#616161"/>
</g>
</svg>
